<?xml version="1.0" standalone="no"?>
<!DOCTYPE svg PUBLIC "-//W3C//DTD SVG 20010904//EN"
 "http://www.w3.org/TR/2001/REC-SVG-20010904/DTD/svg10.dtd">
<svg version="1.0" xmlns="http://www.w3.org/2000/svg"
 width="600.000000pt" height="600.000000pt" viewBox="0 0 600.000000 600.000000"
 preserveAspectRatio="xMidYMid meet">
<g transform="translate(0.000000,600.000000) scale(0.100000,-0.100000)"
fill="#000000" stroke="none">
<path d="M2582 5234 c-12 -8 -22 -21 -22 -27 0 -7 -7 -25 -15 -40 -8 -16 -16
-38 -18 -50 -2 -12 -9 -34 -15 -49 -6 -14 -17 -58 -26 -98 -8 -40 -16 -73 -18
-74 -2 -1 -23 -14 -48 -28 -25 -14 -55 -37 -68 -50 -12 -14 -58 -114 -102
-224 -44 -109 -95 -221 -114 -250 -111 -167 -168 -357 -167 -560 0 -192 48
-359 152 -533 33 -55 86 -167 119 -252 94 -242 104 -259 176 -294 58 -29 60
-32 72 -83 6 -29 20 -65 30 -80 11 -15 23 -38 27 -52 4 -14 13 -35 21 -47 l14
-23 410 0 410 0 20 33 c11 17 20 37 20 44 0 7 11 29 25 49 14 21 28 55 32 77
7 45 11 50 78 85 63 35 81 62 140 218 26 71 57 148 67 171 l19 42 36 -24 c20
-14 42 -25 50 -25 27 0 101 81 132 145 42 86 39 111 -19 150 l-46 31 23 69
c12 39 22 80 22 92 1 21 5 22 44 17 67 -8 98 6 114 51 27 75 18 238 -13 270
-10 10 -35 15 -73 15 l-58 0 -13 63 c-6 34 -18 76 -25 93 -13 31 -12 32 31 64
38 27 44 36 44 67 0 43 -49 139 -97 188 -38 39 -69 44 -114 18 -15 -9 -30 -15
-32 -12 -2 2 -37 87 -77 188 -79 197 -102 233 -174 272 -43 22 -45 25 -56 88
-18 102 -68 243 -94 267 -24 21 -31 21 -413 22 -333 1 -393 -1 -411 -14z m194
-45 c-3 -17 -6 -44 -6 -60 l0 -29 -110 0 c-100 0 -109 2 -103 18 11 29 25 32
113 31 80 -2 85 -1 88 19 3 21 0 22 -74 22 -61 0 -79 -3 -90 -17 -16 -22 -19
-1 -4 28 9 17 22 19 102 19 l91 0 -7 -31z m398 7 c3 -11 6 -29 6 -40 0 -15 -3
-16 -15 -6 -11 9 -60 11 -190 8 -148 -4 -175 -2 -170 10 3 7 5 21 5 30 0 15
19 17 179 18 175 2 179 1 185 -20z m220 2 c8 -12 12 -26 8 -32 -4 -7 -8 -4
-10 7 -3 14 -15 17 -83 17 -65 0 -79 -3 -79 -16 0 -8 -4 -12 -10 -9 -5 3 -10
17 -10 31 0 24 2 24 84 24 76 0 87 -2 100 -22z m30 -64 c12 -31 4 -34 -104
-34 l-110 0 0 25 0 25 104 0 c85 0 105 -3 110 -16z m-282 -3 c13 7 15 5 11
-10 -4 -17 -16 -18 -151 -15 -81 2 -150 4 -154 4 -5 0 -8 4 -8 9 0 5 56 9 129
7 73 -1 127 2 124 7 -3 5 3 4 14 -1 11 -6 25 -7 35 -1z m-319 -31 c-5 -19 0
-20 172 -20 172 0 177 1 172 20 -3 11 -1 20 4 20 10 0 16 -50 10 -95 -1 -6
-72 -10 -191 -10 l-190 0 0 46 c0 25 3 49 7 52 13 13 21 7 16 -13z m-53 -87
c0 -106 3 -103 -117 -103 -110 0 -129 12 -41 26 64 9 100 7 110 -9 11 -18 28
4 22 28 -5 18 -12 20 -99 17 -92 -3 -93 -4 -105 -33 -13 -31 -30 -39 -30 -14
0 9 7 45 16 80 l16 65 114 0 114 0 0 -57z m684 5 c19 -68 23 -102 11 -108 -5
-3 -13 10 -17 28 l-9 32 -104 0 -104 0 6 -30 c3 -17 1 -30 -4 -30 -11 0 -23
69 -23 126 l0 34 115 0 114 0 15 -52z m-266 -139 l3 -96 -58 9 c-61 10 -296 5
-325 -7 -16 -7 -18 1 -18 87 0 52 2 97 4 99 3 2 91 4 198 4 l193 0 3 -96z
m237 51 c16 -18 14 -19 -70 -22 -48 -2 -92 0 -99 4 -8 6 -8 8 1 8 7 0 10 6 7
13 -3 10 13 13 70 14 61 1 77 -2 91 -17z m-667 -101 l-3 -51 -80 -27 c-44 -15
-100 -37 -124 -49 -25 -12 -45 -21 -47 -19 -3 4 -7 88 -5 139 l1 47 78 4 c42
1 101 4 130 5 l53 2 -3 -51z m624 42 l97 -1 3 -95 c2 -61 -1 -94 -7 -91 -61
29 -184 76 -198 76 -42 0 -57 19 -57 69 l0 49 33 -4 c17 -1 76 -3 129 -3z
m-912 -113 l-1 -103 -65 -40 c-37 -22 -95 -71 -131 -110 -36 -38 -58 -58 -49
-44 9 14 38 82 66 152 67 172 74 184 128 218 25 16 47 29 49 29 2 0 3 -46 3
-102z m1097 70 c50 -37 71 -73 128 -223 21 -55 42 -104 46 -109 5 -6 9 -14 9
-20 0 -5 -28 18 -62 51 -35 33 -89 77 -120 98 l-58 38 0 98 c0 55 3 99 6 99 3
0 26 -15 51 -32z m-401 -69 c229 -40 448 -168 592 -346 169 -208 241 -420 229
-673 -14 -288 -132 -523 -359 -711 -303 -253 -731 -301 -1083 -122 -99 50
-148 86 -243 177 -392 376 -403 986 -26 1386 134 142 308 238 504 280 97 21
293 26 386 9z m747 -353 c9 -7 17 -17 17 -21 0 -5 -3 -6 -6 -2 -11 11 -65 -23
-58 -36 4 -7 -5 -1 -20 13 l-27 24 33 18 c40 21 39 21 61 4z m103 -159 c9 -27
14 -49 13 -51 -2 -1 -17 -12 -33 -24 -31 -24 -46 -28 -46 -12 0 6 15 20 34 31
25 15 33 25 29 39 -6 24 -4 25 -48 -1 -20 -12 -37 -20 -38 -18 -2 2 -8 16 -14
30 -11 25 -9 28 23 45 19 10 34 24 34 31 0 7 -2 13 -5 13 -9 0 -59 -33 -66
-44 -4 -5 -12 1 -19 14 -13 24 -13 24 32 55 l33 23 27 -42 c16 -22 35 -63 44
-89z m112 -358 c3 -14 -4 -16 -42 -12 -31 4 -46 2 -46 -6 0 -6 -4 -11 -10 -11
-5 0 -10 11 -10 26 0 24 2 25 52 22 39 -2 54 -7 56 -19z m16 -71 c13 -50 10
-53 -54 -53 -55 0 -60 2 -60 22 0 12 -3 28 -6 37 -5 14 3 16 54 16 53 0 60 -2
66 -22z m0 -106 c-6 -31 -6 -31 -63 -27 -51 3 -56 6 -56 27 0 21 5 23 60 28
33 3 61 5 63 4 1 0 -1 -15 -4 -32z m-69 -62 c25 0 46 5 49 13 3 6 4 1 3 -13
-2 -22 -7 -25 -45 -28 -48 -4 -74 11 -65 36 4 10 8 12 11 4 2 -7 22 -12 47
-12z m-77 -297 l32 -28 -34 -70 c-19 -38 -51 -86 -71 -105 l-35 -34 -35 18
c-19 11 -35 22 -35 26 0 18 15 17 40 -2 21 -15 32 -18 46 -10 15 9 13 12 -19
33 -20 13 -37 26 -37 29 1 3 10 16 20 29 l20 23 34 -26 c27 -20 36 -23 45 -12
8 10 2 17 -29 32 -43 21 -45 25 -30 55 11 19 12 18 46 -8 29 -21 37 -24 44
-13 10 16 4 30 -11 30 -6 0 -7 -6 -3 -12 4 -8 3 -10 -2 -5 -5 5 -9 14 -9 20 0
6 -9 16 -21 22 -21 10 -22 35 0 35 6 0 26 -12 44 -27z m-1579 -408 l51 -30 0
-103 0 -103 -42 23 c-53 29 -78 66 -116 171 -24 66 -62 154 -90 210 -2 4 30
-25 71 -65 41 -40 98 -86 126 -103z m1326 136 c-8 -16 -35 -81 -59 -144 -63
-163 -69 -173 -126 -202 l-50 -25 0 100 c0 87 2 101 18 107 9 3 29 15 44 25
16 11 33 16 38 13 6 -4 9 -3 8 2 -2 6 128 148 140 152 1 1 -4 -12 -13 -28z
m-1145 -232 c41 -17 84 -36 95 -40 12 -6 2 -6 -25 -2 -25 5 -73 8 -107 8 l-63
0 0 39 c0 27 4 37 13 33 6 -3 46 -20 87 -38z m880 7 l0 -35 -57 -6 c-32 -3
-75 -9 -97 -12 -27 -3 -36 -2 -32 6 4 6 15 11 24 11 10 0 49 15 87 34 39 19
71 35 73 35 1 1 2 -14 2 -33z m-721 -56 c4 0 8 -7 8 -15 0 -10 -4 -12 -10 -6
-5 5 -16 7 -23 4 -9 -3 -14 2 -14 12 0 12 5 15 16 11 9 -3 19 -6 23 -6z m521
-5 c0 -9 -6 -12 -15 -9 -8 4 -12 10 -9 15 8 14 24 10 24 -6z m-687 -28 c45 -4
101 -7 125 -7 41 0 42 -1 42 -33 0 -29 -3 -33 -22 -31 -13 1 -71 3 -130 3
l-108 1 1 53 c1 28 3 45 6 36 3 -12 23 -18 86 -22z m362 6 c81 -4 151 -1 184
6 30 6 54 10 55 9 1 -2 0 -38 -2 -80 -2 -53 -8 -78 -16 -78 -8 0 -11 12 -8 34
l4 34 -53 -10 c-29 -5 -110 -8 -181 -6 -70 2 -128 0 -128 -4 0 -3 3 -14 6 -22
5 -13 9 -14 20 -5 15 13 62 14 175 4 44 -4 85 -3 95 3 23 11 45 5 38 -11 -3
-9 -56 -13 -179 -15 l-175 -2 0 81 c0 73 2 80 18 74 9 -4 76 -9 147 -12z m518
-63 c-4 -5 -63 -11 -130 -15 l-123 -7 0 34 0 35 111 7 c62 3 119 11 128 16 13
7 17 3 19 -27 2 -20 0 -39 -5 -43z m-815 -50 l112 0 0 -60 0 -60 -106 4 c-59
3 -111 9 -116 14 -4 4 -17 32 -28 61 l-19 53 22 -6 c12 -3 73 -6 135 -6z m806
-37 c-8 -26 -20 -53 -27 -59 -7 -7 -58 -14 -119 -17 l-108 -4 0 27 c0 15 3 41
6 58 l6 31 122 4 c66 1 124 4 128 5 3 1 0 -19 -8 -45z m-274 -25 c0 -15 -26
-21 -89 -20 -48 1 -59 -2 -41 -8 16 -5 -26 -8 -117 -9 -81 -1 -143 3 -143 8 0
5 -2 15 -5 23 -4 10 32 13 195 13 110 0 200 -3 200 -7z m-47 -60 c-2 -5 -18
-8 -34 -8 -17 0 -28 3 -26 8 3 4 19 7 35 7 17 0 28 -3 25 -7z m33 -54 l-7 -34
-183 0 -184 0 -4 34 c-4 32 -2 34 22 31 14 -2 96 -7 183 -10 l159 -6 6 23 c8
34 15 2 8 -38z m-467 20 c56 -6 61 -9 61 -30 0 -23 -2 -24 -88 -24 -85 0 -89
1 -100 25 -7 14 -12 28 -12 30 0 7 67 6 139 -1z m701 1 c0 -3 -7 -17 -16 -30
-15 -23 -22 -25 -100 -25 l-84 0 0 30 0 30 100 0 c55 0 100 -2 100 -5z"/>
<path d="M2623 5123 c26 -2 67 -2 90 0 23 2 2 3 -48 3 -49 0 -68 -1 -42 -3z"/>
<path d="M2990 5200 l-165 -6 140 -3 c142 -4 186 -3 194 5 9 8 -8 9 -169 4z"/>
<path d="M3236 5128 c3 -4 44 -7 92 -7 96 2 86 6 -25 11 -39 2 -69 0 -67 -4z"/>
<path d="M2960 5050 l-145 -6 178 -2 c97 -1 177 2 177 6 0 9 0 9 -210 2z"/>
<path d="M2580 5039 c-15 -4 11 -7 68 -8 57 -1 92 3 92 9 0 12 -119 11 -160
-1z"/>
<path d="M3244 5039 c-3 -5 33 -9 85 -9 77 0 90 -2 94 -17 4 -14 5 -12 6 5 1
21 -3 22 -71 23 -40 0 -81 2 -90 4 -10 2 -20 -1 -24 -6z"/>
<path d="M2948 4953 c-92 -3 -128 -7 -128 -16 0 -9 27 -11 104 -9 56 2 134 -1
172 -6 38 -5 71 -8 72 -7 2 2 1 13 -3 24 -5 17 -14 21 -48 19 -23 -1 -99 -4
-169 -5z"/>
<path d="M3085 4825 c23 -8 85 -10 85 -3 0 4 -21 8 -47 7 -27 0 -43 -2 -38 -4z"/>
<path d="M2516 4818 c-3 -13 -6 -33 -6 -44 l0 -22 60 19 c33 10 87 20 120 21
55 2 60 4 60 25 0 23 -2 23 -114 23 -109 0 -114 -1 -120 -22z m59 -8 c-27 -12
-43 -12 -25 0 8 5 22 9 30 9 10 0 8 -3 -5 -9z"/>
<path d="M2638 4773 c6 -2 18 -2 25 0 6 3 1 5 -13 5 -14 0 -19 -2 -12 -5z"/>
<path d="M3230 4836 c0 -3 4 -16 10 -30 9 -24 13 -25 79 -23 38 1 67 -2 64 -7
-3 -4 8 -5 25 -1 17 3 33 2 37 -4 4 -7 -1 -9 -12 -5 -10 3 -7 -1 7 -10 25 -14
25 -14 28 21 6 62 4 63 -123 63 -63 0 -115 -2 -115 -4z m195 -26 c3 -6 -1 -7
-9 -4 -18 7 -21 14 -7 14 6 0 13 -4 16 -10z"/>
<path d="M2403 4805 c-23 -18 -39 -47 -61 -107 -44 -124 -46 -138 -13 -82 16
28 48 67 70 85 33 28 41 43 46 82 4 26 3 47 -1 47 -5 0 -23 -11 -41 -25z m-5
-84 c-41 -37 -51 -39 -36 -5 12 27 61 59 66 44 2 -5 -12 -23 -30 -39z"/>
<path d="M3531 4773 c0 -37 3 -51 8 -39 6 17 14 11 54 -38 26 -32 47 -63 47
-68 0 -15 41 -80 47 -75 2 3 -14 54 -36 113 -31 82 -49 116 -73 137 -18 15
-36 27 -40 27 -4 0 -8 -26 -7 -57z m79 -40 c24 -51 20 -72 -4 -24 -9 16 -24
34 -33 39 -24 14 -26 41 -3 35 11 -3 28 -25 40 -50z"/>
<path d="M2920 4732 c0 -7 7 -9 17 -5 10 4 14 2 10 -4 -4 -6 -36 -13 -73 -17
-147 -15 -340 -100 -475 -210 -170 -138 -311 -398 -334 -620 -4 -37 -11 -69
-16 -72 -12 -7 -11 13 1 114 16 125 82 308 134 372 22 26 56 90 48 90 -15 0
-108 -164 -142 -253 -46 -117 -61 -206 -61 -347 0 -252 85 -467 252 -641 30
-30 39 -39 22 -19 -50 54 -39 60 15 9 26 -25 68 -63 94 -83 26 -21 46 -42 43
-46 -3 -5 0 -12 6 -16 8 -4 9 -3 5 4 -12 19 7 14 47 -14 21 -14 60 -36 87 -48
27 -13 46 -27 42 -31 -4 -5 -2 -5 5 -1 6 3 48 -3 91 -14 277 -72 582 -16 804
148 61 44 153 133 206 199 76 94 75 93 51 48 -23 -43 -55 -88 -87 -120 -61
-63 -129 -121 -193 -165 -40 -28 -69 -50 -65 -50 17 0 158 104 223 164 327
306 381 832 124 1211 -53 78 -180 207 -255 257 -80 55 -210 115 -303 139 -91
24 -323 39 -323 21z m280 -58 c283 -65 541 -285 650 -553 88 -216 85 -483 -7
-695 -62 -143 -197 -306 -326 -395 -71 -48 -203 -108 -292 -132 -102 -28 -313
-31 -420 -7 -303 69 -561 284 -669 558 -48 123 -60 187 -60 325 -1 198 39 333
151 504 209 321 602 481 973 395z"/>
<path d="M2882 4669 c-200 -26 -365 -104 -510 -243 -189 -180 -282 -398 -282
-655 1 -333 193 -633 504 -786 115 -57 222 -84 356 -92 316 -17 600 124 804
400 40 55 91 171 118 268 33 120 32 338 -1 454 -50 171 -116 280 -248 406 -98
93 -149 129 -249 173 -102 44 -169 63 -274 76 -94 11 -127 11 -218 -1z m133
-39 c0 -18 -6 -26 -22 -28 -18 -3 -23 1 -23 21 0 28 9 39 30 35 9 -2 15 -14
15 -28z m-116 -22 c1 -5 -3 -8 -9 -8 -5 0 -10 12 -9 28 0 24 1 25 9 7 5 -11 9
-23 9 -27z m41 32 c8 -5 12 -10 8 -10 -4 0 -4 -10 1 -22 8 -21 6 -23 -33 -25
-34 -2 -37 -1 -18 7 17 7 21 16 18 35 -5 27 0 30 24 15z m130 0 c-8 -5 -11
-10 -5 -10 5 0 4 -5 -3 -12 -7 -7 -12 -17 -12 -22 0 -6 4 -5 9 2 6 10 10 10
21 -3 11 -14 9 -15 -18 -13 -27 2 -29 4 -21 26 5 13 7 27 5 31 -3 4 5 8 17 8
17 2 19 0 7 -7z m40 -9 c0 -11 -4 -23 -10 -26 -6 -4 -10 5 -10 19 0 14 5 26
10 26 6 0 10 -9 10 -19z m-256 -2 c-2 -4 0 -10 6 -14 18 -11 12 -47 -7 -43
-21 4 -28 65 -7 65 7 0 11 -4 8 -8z m299 -12 c-3 -14 2 -31 11 -40 15 -14 14
-16 -4 -14 -13 1 -19 6 -15 15 3 8 0 10 -8 5 -17 -11 -37 -13 -37 -4 0 5 10
13 23 19 12 6 16 11 8 11 -11 1 -11 4 -1 16 18 22 28 18 23 -8z m-348 -6 c0
-23 -22 -24 -28 -1 -4 16 -1 20 11 18 9 -2 17 -10 17 -17z m405 0 c0 -20 -17
-37 -27 -28 -7 8 7 47 18 47 5 0 9 -9 9 -19z m-462 -9 c30 -30 33 -49 10 -56
-27 -6 -45 4 -27 15 11 7 11 9 1 9 -7 0 -11 4 -8 9 3 5 -1 12 -10 15 -13 5
-15 2 -11 -14 3 -11 2 -20 -3 -20 -4 0 -10 9 -13 20 -5 19 3 24 32 21 7 -2 10
2 6 8 -10 17 3 13 23 -7z m524 0 c-6 -2 -12 -10 -12 -18 0 -16 -16 -19 -24 -5
-12 19 5 39 27 33 12 -3 16 -7 9 -10z m-586 -53 c16 -18 9 -30 -14 -22 -9 4
-13 2 -9 -4 4 -6 0 -14 -9 -17 -8 -3 -13 -2 -10 2 3 5 -1 20 -9 35 -13 24 -12
28 8 42 20 14 22 14 26 -2 1 -10 9 -25 17 -34z m624 44 c0 -14 -19 -38 -25
-32 -8 8 5 39 16 39 5 0 9 -3 9 -7z m24 -15 c-5 -8 -2 -9 10 -5 13 5 15 3 8
-11 -5 -9 -7 -27 -6 -40 l1 -22 -43 24 c-24 14 -44 20 -44 14 0 -6 -9 -3 -20
7 -11 10 -20 15 -20 11 0 -4 -5 -4 -11 0 -7 4 -8 9 0 17 7 7 15 6 25 -2 8 -7
19 -10 25 -7 5 3 11 0 14 -8 3 -7 16 -15 29 -18 20 -4 24 -1 23 16 -2 22 2 36
11 36 3 0 2 -5 -2 -12z m-509 -8 c3 -5 1 -10 -4 -10 -6 0 -11 5 -11 10 0 6 2
10 4 10 3 0 8 -4 11 -10z m-214 -54 c-10 -12 -18 -13 -32 -5 -22 11 -24 30 -7
47 10 10 16 8 32 -7 16 -17 17 -23 7 -35z m604 9 c220 -63 392 -216 494 -437
50 -108 66 -189 65 -318 -2 -172 -43 -296 -142 -437 -213 -300 -625 -409 -964
-255 -206 93 -360 270 -430 492 -19 63 -23 96 -23 210 0 114 4 147 23 210 48
153 126 272 246 378 194 172 473 232 731 157z m210 25 c8 -14 -13 -50 -30 -50
-19 0 -27 16 -20 40 7 21 39 27 50 10z m-861 -60 c-7 13 -5 13 9 1 15 -12 13
-16 -23 -42 -23 -17 -46 -27 -52 -23 -6 4 -8 3 -5 -2 3 -6 -3 -15 -13 -21 -16
-11 -18 -9 -16 17 1 16 -1 27 -5 24 -4 -2 -9 3 -12 11 -4 10 -1 12 10 8 12 -5
14 -2 9 8 -4 8 1 4 12 -8 24 -27 29 -28 48 -8 9 8 11 15 5 15 -6 0 -11 7 -11
15 0 8 -4 15 -10 15 -13 0 -13 -17 0 -25 6 -4 8 -11 4 -16 -3 -6 -13 -1 -21
11 -13 19 -13 24 -2 31 8 5 20 9 27 9 7 0 10 5 6 13 -3 6 6 -1 21 -18 14 -16
23 -23 19 -15z m890 28 c-5 -8 -2 -9 9 -5 10 3 17 2 17 -3 0 -10 -15 -14 -34
-11 -5 1 -3 -6 5 -15 13 -16 12 -17 -6 -11 -20 7 -20 7 -1 -8 23 -18 14 -20
-13 -3 -18 11 -18 12 2 40 20 28 35 39 21 16z m43 -38 c-4 -17 -1 -19 18 -14
28 7 44 -14 23 -30 -8 -6 -16 -15 -16 -21 -1 -5 -6 -10 -12 -9 -27 3 -31 5
-25 13 3 5 -3 12 -12 15 -10 3 -6 4 10 2 15 -2 30 1 34 7 3 5 1 7 -5 3 -6 -3
-13 -2 -17 4 -4 6 -11 8 -16 5 -12 -8 -11 2 1 26 14 25 24 24 17 -1z m-1058
-54 c10 -12 8 -17 -9 -26 -26 -14 -34 -8 -25 19 7 25 18 27 34 7z m1152 -16
c4 -3 4 -12 -1 -20 -8 -13 -12 -13 -26 2 -15 15 -15 19 -4 34 11 13 15 13 19
3 2 -8 8 -16 12 -19z m-1197 -29 c10 -11 15 -26 11 -33 -4 -7 2 -2 13 12 12
14 24 21 28 17 4 -4 2 -7 -5 -7 -7 0 -10 -3 -8 -7 2 -5 -7 -18 -20 -30 -20
-20 -28 -17 -24 10 0 4 -5 7 -13 7 -16 0 -29 27 -20 41 8 14 19 11 38 -10z
m1246 -23 c0 -4 -5 -8 -11 -8 -5 0 -7 5 -3 12 4 7 3 8 -5 4 -6 -4 -9 -12 -6
-17 4 -5 0 -9 -7 -10 -9 0 -10 -2 -1 -5 7 -3 9 -12 6 -20 -3 -8 1 -14 8 -14 7
0 9 -3 6 -6 -4 -4 -30 17 -57 46 -47 48 -51 59 -7 22 13 -12 17 -12 17 -2 0 7
3 10 7 7 9 -10 34 14 27 27 -3 6 2 2 10 -8 9 -11 16 -23 16 -28z m-1282 -27
c3 -8 -1 -12 -9 -9 -7 2 -15 10 -17 17 -3 8 1 12 9 9 7 -2 15 -10 17 -17z
m1297 -1 c-10 -11 -20 -18 -23 -15 -7 6 18 35 31 35 5 0 2 -9 -8 -20z m-1341
-22 c-5 -8 -2 -9 9 -5 9 3 16 2 14 -2 -2 -9 3 -11 26 -11 9 0 9 2 -1 9 -11 7
-11 9 1 14 23 9 15 -15 -21 -59 -18 -21 -32 -42 -32 -46 0 -5 -4 -8 -8 -8 -10
0 -9 36 1 46 4 4 0 16 -10 26 -18 20 -11 23 18 8 12 -7 19 -7 19 -1 0 5 -9 13
-20 16 -20 6 -19 25 1 25 6 0 7 -5 3 -12z m1370 -32 c-10 -8 -21 -12 -24 -9
-3 2 4 11 14 19 11 7 22 12 25 9 2 -3 -4 -12 -15 -19z m41 -26 c-3 -6 -13 -10
-21 -10 -8 0 -13 -4 -10 -9 3 -5 0 -14 -8 -20 -10 -8 -15 -5 -24 14 -12 26 -7
29 35 28 7 0 12 2 11 6 0 3 0 13 1 21 1 12 4 12 12 -3 5 -9 7 -22 4 -27z m-75
20 c0 -5 -2 -10 -4 -10 -3 0 -8 5 -11 10 -3 6 -1 10 4 10 6 0 11 -4 11 -10z
m-1351 -9 c2 0 -2 -7 -8 -14 -6 -8 -7 -17 -3 -22 4 -4 -3 -2 -15 4 -41 21 -19
48 26 32z m-29 -72 c0 -18 -23 -20 -41 -3 -19 18 -20 19 -2 31 15 12 20 11 30
-4 7 -9 13 -20 13 -24z m1499 27 c13 -16 0 -30 -36 -38 -27 -7 -35 11 -15 35
18 21 36 22 51 3z m-1519 -60 c18 -2 21 -13 14 -42 -4 -15 -12 -20 -28 -19
-38 5 -49 -9 -26 -30 17 -15 20 -16 15 -3 -4 9 -2 19 3 22 14 8 9 -51 -6 -66
-9 -9 -12 -9 -12 0 0 7 6 12 13 12 6 0 -1 9 -17 19 -17 11 -33 18 -38 15 -4
-3 -8 -1 -8 5 0 5 5 13 10 16 6 3 10 12 10 20 0 8 5 26 10 40 8 20 15 25 28
20 9 -4 24 -8 32 -9z m1546 -21 c1 -8 -4 -15 -11 -15 -7 0 -18 -7 -25 -15 -16
-19 -7 -19 33 2 30 15 31 15 18 0 -7 -10 -20 -17 -27 -17 -16 0 -19 -16 -5
-24 5 -3 14 1 21 9 13 16 35 10 24 -6 -3 -5 -10 -7 -15 -4 -5 4 -9 -1 -9 -9 0
-9 9 -16 20 -16 11 0 20 -4 20 -10 0 -5 -9 -10 -20 -10 -11 0 -20 4 -20 9 0 5
-10 11 -22 13 -13 2 -23 10 -23 18 -1 8 -7 26 -14 39 -11 19 -11 25 0 33 10 6
6 7 -10 3 -17 -5 -22 -4 -19 6 3 8 14 14 26 14 11 0 24 3 28 8 9 9 27 -7 30
-28z m-1610 -100 c18 -14 18 -14 -6 -15 -14 -1 -19 -4 -12 -7 20 -8 14 -23 -9
-23 -15 0 -19 4 -15 16 3 9 6 22 6 30 0 18 11 18 36 -1z m1599 -15 c3 -5 2
-10 -4 -10 -5 0 -13 5 -16 10 -3 6 -2 10 4 10 5 0 13 -4 16 -10z m10 -39 c-2
-25 -18 -28 -21 -5 -2 12 2 21 10 21 7 0 12 -7 11 -16z m65 -22 c0 -5 -11 -9
-25 -9 -26 0 -35 25 -12 33 13 5 37 -10 37 -24z m-1680 5 c0 -11 -5 -14 -16
-10 -9 3 -20 6 -25 6 -5 0 -9 5 -9 10 0 6 11 10 25 10 16 0 25 -6 25 -16z m13
-48 c-3 -11 -6 -38 -8 -58 -1 -34 -15 -68 -15 -39 0 7 -4 10 -8 7 -12 -7 -38
12 -29 21 5 4 12 1 16 -6 6 -10 11 -4 16 19 4 18 3 35 -2 39 -6 3 -13 13 -16
21 -4 12 -6 11 -6 -3 -1 -10 -6 -15 -11 -12 -18 11 6 30 38 31 26 1 30 -1 25
-20z m1648 11 c25 -1 38 -24 13 -24 -7 0 -11 4 -8 8 2 4 -5 7 -16 6 -12 -1
-18 -7 -16 -14 3 -7 2 -14 -2 -17 -5 -3 -13 9 -19 25 -11 27 -10 30 5 24 9 -4
29 -8 43 -8z m-1688 -54 c-7 -2 -19 -2 -25 0 -7 3 -2 5 12 5 14 0 19 -2 13 -5z
m1724 0 c-11 -10 -57 -13 -57 -2 0 5 14 9 32 9 17 0 28 -3 25 -7z m-37 -28
c10 2 25 -4 32 -13 11 -15 11 -15 -2 -6 -13 9 -34 11 -42 4 -2 -1 -10 -3 -19
-5 -12 -2 -15 3 -11 22 4 21 6 23 14 10 4 -9 17 -14 28 -12z m-1690 -45 c26
-14 15 -40 -16 -40 -28 0 -44 28 -23 41 18 11 17 11 39 -1z m1731 -7 c6 -6 8
-16 5 -22 -11 -17 -56 -13 -63 5 -11 28 34 41 58 17z m-1701 -53 c0 -5 0 -11
1 -12 11 -31 14 -88 5 -89 -7 0 -6 -3 2 -6 6 -2 12 -9 12 -14 0 -5 -11 -3 -25
3 -22 10 -23 13 -10 20 8 5 15 22 15 39 0 27 -2 29 -20 19 -14 -7 -20 -7 -20
0 0 5 -5 10 -11 10 -5 0 -7 -4 -4 -10 3 -5 1 -10 -4 -10 -6 0 -11 11 -11 24 0
19 6 26 28 29 15 2 30 5 35 6 4 0 7 -3 7 -9z m1670 -12 c0 22 26 6 27 -17 1
-14 -1 -21 -3 -14 -4 8 -13 9 -34 2 -35 -13 -45 -35 -22 -48 11 -7 12 -11 4
-11 -7 0 -10 -4 -7 -10 3 -5 -2 -19 -13 -30 -17 -18 -18 -18 -17 -3 1 10 5 25
9 34 4 9 6 20 5 25 -1 5 -1 29 0 53 l1 43 25 -16 c14 -9 25 -13 25 -8z m-1690
-58 c0 -5 -9 -10 -21 -10 -11 0 -17 5 -14 10 3 6 13 10 21 10 8 0 14 -4 14
-10z m1709 -6 c2 -2 2 -6 0 -9 -8 -7 -49 7 -49 17 0 8 38 2 49 -8z m-1699 -69
c0 -25 1 -30 13 -43 8 -10 7 -16 -4 -23 -22 -14 -26 -11 -32 18 -3 16 0 31 6
35 8 5 6 8 -6 8 -10 0 -15 5 -12 10 10 15 35 12 35 -5z m1680 -14 c-5 -11 -10
-29 -10 -40 0 -23 -7 -26 -29 -12 -12 7 -12 13 -3 24 7 7 9 17 6 20 -10 10 6
27 27 27 16 0 18 -3 9 -19z m-1618 -81 c2 -8 6 -17 10 -20 3 -3 8 -12 10 -20
2 -8 13 -30 26 -47 16 -23 18 -31 7 -27 -8 3 -15 9 -15 13 0 14 -40 6 -41 -9
0 -11 -2 -12 -6 -1 -5 11 -7 11 -15 0 -7 -10 -8 -8 -5 8 3 12 2 24 -2 26 -3 2
0 2 6 1 15 -4 37 32 24 40 -5 3 -11 -1 -15 -9 -3 -8 -13 -15 -22 -15 -13 0
-11 5 10 25 33 31 34 42 1 21 -39 -25 -52 -8 -19 23 28 26 38 24 46 -9z m1583
2 c14 -8 16 -12 5 -12 -13 0 -13 -1 0 -10 9 -6 10 -10 3 -10 -7 0 -16 8 -22
17 -7 14 -14 15 -32 6 l-24 -10 33 -17 c32 -17 40 -26 23 -26 -6 0 -22 10 -37
23 -25 22 -25 24 -10 40 10 9 15 17 11 17 -3 0 -3 5 0 11 5 7 11 5 18 -4 7 -8
21 -19 32 -25z m-51 -63 c8 -12 19 -18 26 -14 9 6 9 2 0 -14 -8 -16 -15 -20
-24 -12 -7 6 -22 9 -33 7 -12 -3 -20 1 -20 10 0 8 4 14 9 14 4 0 8 7 8 15 0
21 16 19 34 -6z m6 -84 c0 -19 -16 -27 -40 -20 -22 7 -26 25 -8 43 14 14 48
-2 48 -23z m-1486 10 c3 -8 -4 -21 -17 -30 -19 -13 -23 -13 -36 0 -12 11 -12
17 -1 29 16 20 46 21 54 1z m69 -59 c7 4 8 3 4 -1 -7 -9 -28 -15 -54 -17 -7
-1 -13 -5 -13 -10 0 -5 -5 -6 -10 -3 -6 4 -8 11 -5 16 4 5 0 9 -7 9 -7 1 -1 8
15 16 15 8 27 20 27 27 1 7 8 -1 16 -16 9 -17 20 -25 27 -21z m1333 22 c14 -1
39 -22 41 -35 1 -6 -5 -10 -15 -8 -9 2 -23 4 -30 4 -7 1 -11 5 -7 10 3 5 0 13
-6 17 -8 4 -9 3 -5 -4 4 -7 2 -12 -4 -12 -7 0 -9 -7 -6 -16 3 -8 2 -13 -3 -10
-4 3 -17 -2 -27 -10 -10 -9 -13 -13 -7 -9 17 8 55 -13 47 -27 -5 -7 -12 -5
-21 7 -7 11 -14 16 -14 12 -1 -4 -2 -11 -3 -17 -2 -17 -44 -41 -51 -30 -5 7
-12 5 -21 -7 -7 -10 -13 -13 -14 -8 0 6 27 38 60 72 33 34 60 70 60 80 0 14 2
15 9 5 4 -8 12 -14 17 -14z m-1323 -57 c-3 -11 11 -16 32 -11 6 1 7 -2 3 -6
-5 -4 9 -23 30 -42 20 -19 26 -27 13 -19 -20 13 -28 14 -40 4 -12 -10 -14 -9
-9 9 7 26 -32 50 -50 32 -8 -8 -16 -8 -27 2 -19 16 -19 30 0 30 8 0 15 4 15 9
0 5 8 8 18 6 9 -1 16 -8 15 -14z m1332 -1 c3 -5 -1 -10 -9 -10 -9 0 -16 5 -16
10 0 6 4 10 9 10 6 0 13 -4 16 -10z m-1327 -61 c-2 -6 -8 -10 -13 -10 -5 0
-11 4 -13 10 -2 6 4 11 13 11 9 0 15 -5 13 -11z m1272 -12 c0 -7 -14 -23 -31
-36 -24 -18 -33 -20 -45 -10 -10 8 -12 15 -5 22 7 7 15 6 26 -3 13 -10 15 -9
15 8 0 18 11 29 33 31 4 1 7 -5 7 -12z m-87 -68 c5 -4 6 -12 3 -18 -9 -14 -36
-15 -37 -1 -1 6 -2 16 -3 23 -1 6 3 16 9 20 6 5 4 7 -5 4 -8 -2 -14 -10 -12
-16 1 -7 -2 -10 -7 -7 -16 11 -22 -11 -6 -24 8 -7 15 -20 14 -29 0 -10 -2 -12
-6 -3 -2 6 -10 9 -16 5 -7 -3 -9 -2 -4 2 4 5 0 19 -9 33 -9 13 -12 22 -8 19 5
-3 20 8 34 23 l25 28 9 -26 c5 -15 13 -30 19 -33z m-1163 41 c0 -5 -2 -10 -4
-10 -3 0 -8 5 -11 10 -3 6 -1 10 4 10 6 0 11 -4 11 -10z m44 1 c3 -4 -3 -16
-14 -26 -20 -18 -25 -11 -14 19 7 18 20 21 28 7z m41 -11 c25 21 25 -7 0 -34
-14 -15 -27 -22 -30 -16 -4 6 -12 8 -18 4 -7 -3 -3 2 8 11 11 9 19 24 18 33
-2 10 0 12 3 4 4 -9 9 -10 19 -2z m69 -45 c15 -14 22 -25 16 -25 -6 0 -8 -4
-5 -10 3 -5 -1 -10 -10 -10 -9 0 -14 -4 -10 -9 3 -5 0 -13 -6 -17 -8 -4 -9 -3
-5 4 7 11 -5 16 -29 13 -5 -1 -3 4 6 11 16 13 22 48 8 48 -4 0 -11 -9 -14 -20
-3 -11 -11 -20 -16 -20 -11 0 -4 16 19 43 19 21 14 22 46 -8z m916 -9 c0 -7 7
-19 15 -26 17 -14 12 -25 -17 -41 -19 -10 -20 -9 -15 10 3 14 0 21 -8 21 -23
0 -28 21 -9 35 24 18 34 19 34 1z m-851 -45 c12 -8 12 -13 -2 -35 -11 -16 -23
-23 -32 -20 -18 7 -20 50 -2 57 18 8 21 8 36 -2z m745 -16 c-4 -15 -2 -25 5
-25 18 0 12 -24 -9 -38 -17 -10 -21 -8 -35 18 -11 21 -20 28 -33 23 -12 -4
-11 -1 5 11 17 13 55 32 71 35 1 1 0 -10 -4 -24z m66 -29 c-17 -22 -25 -20
-38 8 -16 35 5 53 32 27 16 -17 17 -23 6 -35z m-767 5 c-3 -12 -2 -12 7 2 6 9
8 23 4 30 -5 8 -3 8 9 -2 18 -14 12 -36 -17 -61 -12 -9 -16 -9 -16 -1 0 7 -5
9 -12 5 -7 -5 -8 -3 -2 7 9 15 11 20 13 47 1 14 3 14 10 3 5 -8 7 -21 4 -30z
m48 -42 c-9 -23 -10 -23 -10 -2 -1 12 2 30 6 40 6 15 8 15 11 2 1 -8 -2 -26
-7 -40z m45 42 c-3 -5 4 -12 17 -15 21 -6 21 -7 3 -21 -11 -9 -16 -20 -12 -31
5 -14 4 -15 -9 -4 -8 7 -15 9 -15 6 0 -4 -5 -4 -10 -1 -8 5 -7 11 1 21 6 7 9
20 6 28 -3 8 -1 17 6 20 18 7 19 7 13 -3z m500 -13 c-4 6 -3 12 2 12 16 0 24
-33 10 -43 -9 -6 -8 -7 5 -3 21 7 22 2 1 -18 -22 -22 -27 -20 -42 14 -8 17
-19 28 -25 24 -7 -3 -3 2 7 10 16 13 22 13 35 3 12 -9 13 -9 7 1z m-74 -20
c-7 -7 -12 -20 -12 -30 0 -24 -19 -23 -41 4 -11 11 -19 22 -19 23 0 2 16 4 50
7 11 1 20 7 20 12 0 5 3 6 7 3 4 -4 1 -13 -5 -19z m131 2 c3 -11 1 -20 -4 -20
-5 0 -9 2 -9 4 0 2 -3 11 -6 20 -3 9 -2 16 4 16 5 0 12 -9 15 -20z m-423 -5
c8 -2 27 -4 43 -4 20 -1 27 -6 27 -21 0 -11 -4 -20 -10 -20 -5 0 -7 -8 -3 -17
6 -16 4 -16 -15 1 -12 11 -22 25 -22 33 0 18 -29 17 -36 -2 -4 -8 -10 -12 -15
-9 -5 3 -9 0 -9 -5 0 -6 -3 -11 -7 -11 -5 0 -9 15 -10 34 -2 36 -3 36 57 21z
m218 -22 c14 -32 15 -43 3 -43 -5 0 -12 15 -16 33 -6 25 -9 28 -12 12 -3 -11
-10 -26 -15 -33 -8 -9 -7 -11 7 -6 13 5 16 4 11 -4 -11 -19 -33 -14 -39 8 -3
11 -1 18 3 15 5 -3 12 -1 15 5 4 6 1 9 -6 8 -19 -5 -22 20 -2 25 33 9 38 7 51
-20z m-298 -3 c0 -11 -4 -20 -10 -20 -5 0 -10 9 -10 20 0 11 5 20 10 20 6 0
10 -9 10 -20z m408 -9 c3 -16 -1 -22 -10 -19 -7 3 -15 15 -16 27 -3 16 1 22
10 19 7 -3 15 -15 16 -27z m-190 -25 c-4 -30 -42 -28 -46 3 -2 13 2 27 9 32
18 11 41 -10 37 -35z m-128 9 c0 -14 -4 -25 -10 -25 -5 0 -10 11 -10 25 0 14
5 25 10 25 6 0 10 -11 10 -25z"/>
<path d="M2948 4531 c16 -9 -15 -21 -58 -21 -39 0 -138 -28 -197 -55 l-53 -24
25 -43 c14 -24 25 -47 25 -52 0 -16 -28 15 -45 49 l-16 35 -39 -20 c-55 -28
-50 -18 8 17 61 36 92 50 177 80 39 13 55 22 37 19 -53 -9 -182 -64 -241 -103
-119 -78 -213 -190 -275 -325 -48 -103 -66 -197 -64 -320 2 -101 2 -102 8 -33
l6 70 2 -55 c3 -75 36 -209 68 -273 77 -152 208 -285 349 -352 122 -58 206
-77 335 -76 125 0 226 23 329 75 77 39 86 42 75 24 -4 -8 -3 -10 2 -5 5 5 9
14 9 20 0 7 9 12 20 12 11 0 20 6 20 14 0 8 6 16 14 19 9 3 11 0 6 -9 -5 -8
-4 -11 1 -6 5 5 9 12 9 16 0 4 26 36 58 71 31 35 57 59 57 54 0 -6 -5 -15 -12
-22 -7 -7 -9 -12 -5 -12 17 0 108 157 131 228 26 76 33 116 15 77 -7 -16 -8
-14 -4 10 3 17 8 80 12 140 l8 110 6 -80 5 -80 2 77 c2 60 -1 79 -13 86 -11 6
-17 29 -19 80 -3 53 -12 88 -34 137 -17 36 -34 65 -37 65 -3 0 5 -21 19 -47
13 -27 26 -59 30 -73 3 -14 -4 -2 -18 26 -13 28 -40 77 -60 109 -21 31 -35 59
-33 62 3 2 14 -13 26 -33 12 -20 24 -34 27 -31 10 10 -70 110 -139 174 -36 34
-93 77 -125 96 -59 35 -163 78 -185 76 -7 0 12 -9 40 -19 29 -10 79 -33 110
-50 68 -36 188 -131 188 -148 0 -19 -127 -162 -138 -155 -6 3 -7 1 -4 -4 7
-11 -26 -47 -34 -38 -3 2 -32 -23 -65 -57 -32 -33 -53 -58 -46 -54 15 9 16 -6
0 -22 -16 -16 -31 -15 -21 1 10 17 -66 -44 -101 -82 -50 -52 -15 -34 41 21 29
29 53 47 53 42 0 -13 -92 -102 -132 -128 -15 -10 -26 -22 -23 -26 11 -17 -18
-70 -41 -76 -19 -5 -24 -12 -23 -38 1 -30 1 -30 9 -6 4 14 8 21 9 16 1 -5 9
-2 19 7 10 10 22 14 26 10 4 -5 6 -3 5 2 -2 6 2 20 9 31 6 12 8 25 4 29 -4 5
1 5 10 2 10 -3 17 -3 17 1 -3 18 3 31 26 56 14 15 25 23 25 19 0 -4 9 6 19 23
11 18 25 35 33 40 9 6 9 3 -1 -10 -16 -19 -18 -25 -27 -94 -6 -43 13 -132 29
-132 4 0 6 -4 2 -9 -3 -5 0 -13 6 -17 8 -5 9 -3 4 6 -6 9 -4 11 4 6 9 -6 8
-13 -5 -27 -9 -11 -14 -22 -11 -26 4 -3 7 -2 7 4 0 6 7 14 16 17 11 4 15 2 11
-8 -4 -10 -1 -13 9 -9 7 3 14 1 14 -5 0 -12 62 -43 90 -45 11 -1 20 -5 20 -9
0 -5 8 -5 18 -1 9 5 31 8 47 7 30 -1 115 40 115 57 0 4 6 6 14 3 7 -3 27 6 43
20 17 15 34 21 39 16 5 -5 23 -10 39 -13 21 -3 16 -4 -17 -6 -46 -1 -70 -21
-26 -21 29 0 18 -9 -15 -12 -34 -3 -22 -16 18 -20 25 -2 31 1 33 20 2 12 8 22
13 22 11 0 11 -11 -1 -30 -5 -9 -5 -19 1 -27 8 -8 7 -24 -1 -50 -17 -51 -50
-116 -56 -110 -3 3 6 27 19 54 32 64 41 93 28 93 -6 0 -11 -7 -11 -15 0 -50
-110 -216 -193 -291 -112 -102 -296 -179 -438 -183 l-65 -2 -3 44 c-1 33 2 46
15 51 8 3 20 4 25 0 5 -3 9 0 9 6 0 6 6 10 13 9 18 -3 69 12 94 28 12 8 26 15
30 16 4 1 7 8 5 14 -2 8 3 10 15 6 15 -6 16 -4 5 9 -10 12 -10 18 2 27 10 9
16 8 26 -3 6 -9 9 -20 5 -25 -4 -7 1 -8 12 -4 16 6 17 5 3 -12 -14 -17 -14
-18 6 -7 21 11 34 7 34 -10 0 -5 -6 -6 -12 -3 -7 4 -5 0 5 -8 16 -14 16 -15 1
-21 -9 -4 -19 -4 -22 -1 -3 3 1 5 8 5 7 0 11 2 8 5 -3 3 -12 3 -21 -1 -15 -5
-15 -8 -1 -29 14 -22 17 -22 44 -8 35 17 34 14 16 58 -18 43 -8 45 20 5 19
-28 21 -29 43 -14 15 11 20 22 16 37 -6 20 -5 21 8 5 13 -16 15 -16 36 6 15
15 19 29 14 42 -6 17 -5 17 9 6 14 -11 20 -10 37 7 24 24 25 28 9 34 -7 2 -4
3 8 1 29 -5 55 28 39 49 -16 22 -25 21 -25 0 0 -21 -44 -45 -58 -31 -5 5 -9 3
-9 -6 0 -8 4 -13 9 -10 4 3 8 2 8 -3 0 -4 -16 -21 -35 -36 -20 -16 -33 -32
-30 -38 4 -5 -4 -5 -19 1 -20 7 -24 6 -20 -4 3 -8 0 -17 -5 -21 -6 -3 -9 -12
-5 -18 3 -7 -1 -4 -9 5 -8 10 -17 15 -20 12 -3 -3 -3 3 0 15 3 12 10 21 17 21
6 0 4 5 -4 10 -8 5 -10 10 -5 10 6 0 3 5 -5 10 -12 8 -13 12 -2 19 11 6 10 10
-4 15 -9 3 -19 4 -22 1 -3 -3 1 -5 8 -5 7 0 10 -3 7 -6 -4 -4 -13 -1 -22 6 -8
7 -15 10 -15 6 0 -4 -13 0 -30 9 -31 16 -42 32 -15 21 16 -6 20 5 6 19 -4 6
-16 35 -25 65 -10 30 -25 63 -34 74 -10 10 -15 21 -14 25 6 10 -71 49 -113 57
-58 10 -125 10 -125 0 0 -4 -11 -6 -25 -4 -13 3 -22 2 -20 -2 3 -5 -1 -10 -9
-13 -8 -3 -17 1 -20 9 -3 9 -1 12 4 9 6 -3 10 -2 10 4 0 13 45 61 57 61 6 0
16 7 24 16 11 13 14 12 24 -13 l12 -28 1 38 c0 20 -4 40 -9 43 -19 11 -125
-78 -115 -95 4 -7 1 -8 -8 -5 -21 8 -32 -22 -16 -41 9 -10 9 -15 1 -15 -6 0
-11 4 -11 9 0 23 -30 16 -66 -16 -21 -19 -76 -66 -122 -105 -46 -39 -88 -80
-94 -92 -11 -21 -11 -21 10 -2 12 10 28 16 37 12 12 -4 15 -1 11 12 -5 14 4
24 36 42 24 14 47 23 51 22 5 -1 6 2 3 7 -3 5 18 29 46 52 29 24 56 48 59 53
4 5 12 5 19 1 10 -6 9 -11 -3 -20 -17 -12 -44 -73 -51 -118 -3 -15 -13 -36
-23 -45 -11 -9 -13 -13 -6 -8 16 11 22 6 26 -20 1 -10 6 -25 10 -31 5 -8 3
-13 -5 -13 -10 0 -9 -3 2 -11 13 -9 13 -10 0 -6 -8 2 -14 11 -12 20 1 8 -3 19
-9 23 -8 5 -10 2 -5 -7 6 -10 4 -10 -6 1 -17 19 -58 22 -51 3 4 -10 -1 -13
-18 -10 -22 4 -24 1 -24 -33 0 -26 4 -36 13 -33 8 4 10 0 6 -11 -3 -9 -11 -13
-17 -9 -6 4 -7 1 -2 -6 4 -7 -1 -20 -14 -32 -25 -24 -40 -25 -18 -1 21 23 21
28 -4 53 -16 16 -24 18 -33 9 -6 -6 -6 -11 -1 -10 24 5 26 -1 4 -19 -32 -25
-41 -18 -23 19 17 33 14 45 -16 53 -13 3 -18 1 -13 -6 4 -7 0 -8 -12 -3 -15 5
-16 4 -5 -9 11 -13 10 -14 -5 -9 -14 6 -16 4 -10 -6 5 -9 4 -11 -4 -6 -6 4 -9
12 -6 17 4 5 0 9 -7 9 -7 0 -2 7 10 16 18 12 20 19 11 35 -8 15 -7 25 3 37 8
12 5 11 -10 -3 -13 -11 -19 -21 -13 -23 19 -6 12 -31 -11 -43 -13 -6 -20 -8
-16 -4 4 5 2 15 -5 23 -9 12 -9 16 1 19 6 3 9 10 6 15 -4 6 -3 8 2 5 6 -3 16
3 23 15 7 11 8 17 2 13 -6 -3 -11 -2 -11 3 0 17 13 22 28 9 11 -8 14 -8 9 0
-4 6 -1 14 5 17 7 2 4 4 -7 3 -11 -2 -25 -6 -32 -10 -6 -4 -14 -1 -17 5 -3 7
-3 3 0 -10 6 -23 -17 -51 -41 -51 -5 -1 0 7 13 17 16 13 21 23 16 37 -7 17 -8
17 -15 -3 -5 -12 -16 -21 -26 -21 -17 1 -17 2 0 6 9 2 15 8 12 13 -8 13 16 25
50 26 36 0 79 14 71 21 -3 4 0 13 7 21 9 13 9 14 0 8 -9 -5 -13 -1 -13 12 0
11 -7 23 -16 26 -8 3 -12 10 -9 16 3 6 -4 10 -17 10 -31 -1 -72 -36 -64 -55 8
-23 -37 -38 -69 -23 -13 6 -22 14 -20 19 3 4 1 10 -5 14 -17 10 -11 33 10 40
11 3 20 11 20 17 0 5 -7 7 -15 4 -8 -3 -22 -9 -30 -12 -8 -3 -15 -2 -15 4 0
16 50 24 66 11 12 -9 18 -9 27 0 9 10 8 11 -7 5 -15 -6 -17 -4 -11 7 4 8 5 11
0 7 -4 -4 -20 -1 -36 8 -25 13 -28 13 -23 -1 5 -11 2 -13 -10 -9 -24 9 -19 21
14 33 35 12 38 26 10 41 -17 9 -18 14 -7 30 6 11 15 20 20 20 4 0 5 -4 2 -10
-3 -5 0 -7 7 -5 9 4 19 -7 28 -30 7 -19 20 -35 27 -35 8 0 11 -4 8 -10 -3 -5
1 -10 10 -10 10 0 13 -5 9 -12 -4 -7 -3 -8 4 -4 7 4 12 3 12 -3 0 -15 41 -34
72 -33 16 0 26 -3 23 -9 -4 -5 2 -6 11 -2 13 5 16 3 11 -9 -8 -22 28 -55 39
-36 4 7 4 10 -1 6 -13 -12 -34 11 -28 30 3 13 15 17 47 17 32 0 42 3 39 13 -3
7 -2 12 3 11 23 -4 45 2 39 11 -3 6 1 7 10 4 10 -4 15 -2 13 7 -2 7 2 13 9 14
16 0 29 15 13 15 -7 0 -1 10 14 21 15 12 25 24 22 27 -3 3 -1 12 6 19 13 16
22 156 9 149 -4 -3 -8 1 -8 8 0 8 7 13 16 11 9 -1 15 -8 13 -14 -1 -6 5 -11
13 -11 13 0 19 -11 17 -31 -1 -4 7 -5 17 -2 11 3 18 -1 19 -11 1 -9 3 -23 4
-31 1 -8 5 -12 10 -9 4 3 3 15 -3 27 -9 17 -9 19 1 11 13 -13 22 -66 9 -59 -4
3 -26 -13 -49 -35 -41 -40 -58 -51 -44 -28 4 7 -7 2 -24 -11 -18 -12 -30 -27
-27 -32 7 -11 -43 -59 -61 -59 -7 0 -16 -4 -19 -10 -3 -6 2 -8 12 -5 10 3 6
-1 -10 -8 -15 -7 -24 -17 -20 -22 5 -4 0 -5 -10 -2 -11 4 -16 3 -12 -3 3 -6
-2 -10 -12 -10 -15 0 -16 -2 -3 -10 13 -8 12 -10 -2 -10 -10 0 -17 -6 -15 -12
1 -7 -5 -12 -14 -10 -9 1 -19 -5 -23 -13 -3 -9 -10 -14 -15 -11 -13 8 -32 -18
-37 -51 -4 -26 1 -24 66 37 38 36 99 91 134 120 47 40 65 62 66 80 0 18 3 21
9 11 7 -10 25 0 79 45 55 45 69 61 60 71 -16 19 16 63 42 58 15 -3 32 10 64
51 45 58 174 175 361 327 61 49 111 93 113 97 5 14 -89 89 -167 133 -84 49
-150 73 -226 84 l-50 7 35 7 c32 7 31 7 -12 6 -26 0 -50 2 -54 6 -4 4 -30 7
-58 7 -32 0 -46 -4 -38 -9z m80 -8 c-10 -2 -28 -2 -40 0 -13 2 -5 4 17 4 22 1
32 -1 23 -4z m-131 -59 c1 -33 23 -77 23 -45 0 7 4 10 9 7 5 -4 11 0 14 6 4
10 7 10 18 0 11 -11 10 -14 -7 -18 -19 -5 -21 -10 -13 -42 11 -46 11 -65 2
-59 -19 12 -16 -122 3 -151 15 -22 15 -23 -5 -12 -12 6 -21 7 -21 2 0 -4 -16
-8 -35 -8 -37 1 -49 -17 -15 -22 11 -2 20 -9 20 -16 0 -9 -9 -12 -25 -8 -14 2
-25 10 -25 17 0 7 -9 15 -21 18 -18 5 -20 11 -14 39 l6 33 -15 -29 c-9 -15
-16 -38 -15 -50 0 -19 1 -19 8 -3 6 17 8 17 20 3 11 -13 11 -16 0 -17 -8 0 -6
-4 5 -8 17 -7 17 -8 1 -24 -9 -10 -22 -14 -28 -10 -7 4 -6 -1 2 -10 15 -19 26
-23 15 -5 -5 8 -2 9 12 3 10 -4 30 -10 44 -13 14 -3 28 -10 32 -16 5 -8 8 -7
8 2 0 6 4 12 9 12 6 0 8 -9 6 -19 -3 -15 1 -18 12 -14 12 5 14 3 8 -6 -5 -8 2
-7 17 3 13 9 34 14 46 11 12 -2 24 1 28 6 4 6 11 6 20 -2 7 -6 12 -15 9 -18
-2 -4 2 -8 10 -8 13 0 13 3 0 17 -14 16 -14 18 5 23 11 3 23 0 27 -5 4 -7 1
-8 -8 -3 -8 5 -10 4 -6 0 15 -17 36 -14 29 3 -5 14 -3 15 10 4 13 -10 17 -10
22 3 6 17 -16 30 -38 22 -7 -3 -19 0 -25 6 -8 8 -11 8 -11 -1 0 -16 -47 -15
-53 1 -3 7 -6 5 -6 -5 -1 -13 -10 -17 -41 -15 -25 1 -40 6 -40 14 0 17 -20 17
-21 1 0 -8 -2 -9 -5 -2 -2 6 -18 8 -34 6 -17 -2 -30 0 -30 6 0 8 51 11 155 11
130 1 155 -2 155 -14 0 -8 5 -15 11 -15 6 0 9 7 5 15 -3 8 2 21 10 30 12 11
12 15 2 16 -11 0 -11 1 0 6 9 3 6 9 -10 17 -36 19 -67 25 -74 15 -3 -6 -12 -5
-22 3 -10 9 -13 9 -9 1 5 -8 1 -11 -11 -10 -17 1 -17 4 -5 27 7 14 13 30 13
36 0 6 7 17 15 24 8 7 15 20 14 29 0 12 -2 11 -8 -4 -7 -16 -9 -13 -15 18 -4
21 -13 40 -21 43 -10 4 -11 12 -4 31 10 27 2 76 -12 68 -4 -3 -6 9 -3 27 3 18
6 39 6 46 1 13 11 16 21 5 4 -3 0 -15 -10 -25 -9 -10 -11 -18 -6 -18 6 0 13
-10 16 -22 5 -17 9 -19 20 -10 8 7 16 9 19 6 4 -3 5 10 3 28 -3 27 0 34 16 34
18 0 21 -19 7 -41 -3 -5 6 -19 20 -29 14 -11 22 -15 19 -9 -4 6 0 13 8 17 8 3
15 12 15 21 0 8 5 15 10 15 6 0 4 -14 -5 -32 l-16 -33 19 24 c13 16 24 21 33
16 11 -7 10 -4 -1 10 -13 16 -13 18 0 13 10 -3 14 -16 12 -39 l-2 -34 20 35
c14 23 19 27 16 13 -9 -36 -14 -59 -9 -46 2 7 11 9 18 7 10 -4 13 0 10 15 -5
25 6 33 25 20 8 -5 10 -9 5 -9 -6 0 -16 -13 -23 -30 -8 -16 -20 -30 -28 -30
-9 0 -13 -4 -9 -9 3 -5 -5 -17 -17 -25 -12 -9 -18 -16 -13 -16 6 0 4 -4 -4 -9
-12 -7 -8 -15 17 -41 26 -26 37 -30 61 -25 30 6 46 29 34 48 -4 6 0 8 10 4 23
-9 21 -2 -5 24 -17 16 -18 20 -6 16 12 -4 15 -2 12 7 -3 8 0 17 5 21 6 3 9 10
6 15 -3 5 -1 11 5 15 5 3 10 1 10 -5 0 -6 6 -8 13 -4 6 4 3 -2 -7 -15 -18 -20
-19 -23 -3 -38 15 -16 18 -15 36 2 11 9 18 23 14 29 -3 6 5 0 18 -14 22 -22
23 -28 12 -45 -21 -31 -15 -43 8 -15 14 17 17 19 10 5 -13 -27 -44 -52 -58
-48 -6 2 -15 -1 -19 -8 -5 -8 -3 -10 7 -5 8 4 1 -3 -16 -16 -16 -12 -42 -34
-56 -48 -20 -20 -30 -23 -42 -16 -12 8 -20 7 -29 -3 -10 -11 -10 -12 0 -7 24
14 34 -5 13 -25 -23 -22 -36 -25 -25 -6 4 7 3 9 -2 4 -5 -5 -9 -14 -9 -20 0
-5 -6 -12 -14 -15 -9 -3 -11 0 -5 9 6 11 5 12 -8 2 -8 -7 -17 -11 -19 -8 -3 2
-5 -4 -5 -15 0 -15 3 -17 16 -7 13 10 13 10 2 -5 -7 -9 -24 -19 -38 -22 -14
-4 -22 -10 -20 -15 3 -5 -3 -16 -13 -25 -13 -12 -21 -14 -26 -6 -5 8 -12 7
-24 -4 -10 -9 -22 -13 -27 -9 -5 5 -1 -2 9 -14 18 -21 18 -21 -1 -27 -11 -4
-23 -13 -26 -21 -3 -8 -11 -15 -17 -15 -8 0 -7 5 2 18 11 14 11 15 -1 5 -18
-16 -44 -17 -34 -1 4 7 3 8 -5 4 -6 -4 -9 -12 -6 -17 4 -5 0 -9 -8 -9 -10 0
-14 7 -10 23 4 17 2 19 -5 8 -8 -12 -14 -7 -28 22 -13 27 -22 36 -35 32 -10
-3 -21 0 -25 6 -4 8 -3 9 4 5 8 -5 10 -1 5 9 -4 13 -8 14 -14 4 -6 -10 -12 -9
-26 7 -10 11 -30 29 -46 39 -20 12 -25 21 -17 30 5 6 7 15 3 18 -3 4 -12 -1
-19 -11 -11 -16 -14 -15 -33 10 -12 15 -30 30 -41 33 -11 4 -18 10 -15 15 3 4
-2 11 -11 14 -10 4 -13 2 -8 -7 4 -6 -5 -1 -20 13 l-28 25 -19 -24 c-13 -16
-16 -27 -9 -36 5 -6 6 -16 2 -20 -4 -5 -1 -5 6 -1 7 4 12 1 12 -9 0 -9 5 -13
10 -10 6 3 10 2 10 -3 0 -4 12 -21 28 -38 15 -16 36 -40 47 -54 l20 -25 -20
15 c-11 8 -23 20 -27 26 -4 6 -18 9 -32 7 -13 -3 -33 0 -43 6 -12 6 -24 6 -29
1 -5 -5 -19 -11 -31 -13 -13 -2 -26 -6 -29 -10 -4 -4 -14 -1 -22 6 -10 7 -13
8 -9 1 10 -17 -17 -35 -39 -28 -14 4 -16 4 -5 -4 11 -8 10 -13 -8 -28 -11 -10
-21 -24 -21 -32 0 -8 -5 -10 -12 -6 -7 4 -10 4 -6 0 3 -4 0 -23 -8 -42 -8 -19
-11 -34 -7 -34 4 0 2 -5 -4 -11 -7 -7 -30 -12 -52 -13 -32 -1 -41 3 -41 15 0
12 8 15 31 13 17 -2 36 -6 42 -10 7 -3 3 2 -7 10 -11 9 -29 16 -41 16 -20 0
-21 3 -12 53 10 58 45 167 59 182 4 5 8 15 8 23 0 9 -7 6 -21 -9 -16 -19 -18
-20 -10 -4 5 11 17 29 26 40 9 11 14 15 11 9 -3 -7 11 -21 35 -32 22 -11 36
-22 32 -24 -4 -3 -3 -3 4 -2 15 4 24 -21 16 -43 -5 -15 -4 -16 8 -7 8 6 23 8
34 4 13 -5 25 0 38 14 18 20 18 20 12 1 -3 -11 -3 -16 2 -12 10 10 12 78 2 71
-11 -6 -39 37 -32 50 4 6 2 7 -3 3 -5 -5 -9 -14 -9 -19 0 -6 -13 -13 -28 -15
-16 -2 -26 0 -23 5 5 9 -44 25 -52 17 -10 -10 67 -43 89 -38 30 6 43 -8 34
-37 -8 -25 -41 -26 -54 -1 -6 10 -26 26 -46 35 -19 9 -39 25 -44 34 -10 20 -4
42 11 42 6 0 5 -8 -3 -17 -13 -16 -12 -17 4 -4 10 8 16 20 13 27 -3 8 0 13 7
11 7 -1 13 10 15 26 3 20 9 27 25 27 15 0 18 3 10 8 -9 6 -4 17 21 41 24 24
36 29 41 20 6 -8 4 -10 -5 -4 -9 5 -11 4 -6 -3 12 -20 28 -13 21 8 -15 47 59
64 84 20 10 -17 16 -21 19 -11 2 7 -1 17 -8 21 -9 5 -9 13 -2 25 9 17 10 17
16 -3 4 -12 12 -22 18 -22 6 0 8 -3 5 -7 -4 -3 1 -12 11 -19 14 -10 15 -15 4
-26 -11 -11 -13 -11 -10 1 2 7 -4 16 -12 18 -10 3 -11 2 -4 -4 6 -4 10 -16 8
-26 -1 -9 2 -14 8 -11 5 3 8 -2 6 -12 -2 -14 2 -18 16 -16 11 2 15 -1 11 -8
-4 -7 4 -10 25 -8 17 1 34 6 37 11 2 4 12 2 21 -5 15 -11 15 -11 5 3 -7 8 -11
26 -8 39 5 25 -34 70 -61 70 -12 0 -13 4 -3 23 12 21 11 21 -7 7 -10 -8 -16
-10 -11 -5 4 4 -1 17 -10 27 -16 18 -16 18 0 12 10 -3 17 -1 17 6 0 6 5 8 11
5 6 -4 8 -9 5 -13 -6 -5 23 -31 36 -32 4 0 12 9 19 21 8 16 8 24 -1 33 -8 8
-9 6 -4 -9 l7 -20 -16 20 c-19 23 -22 13 -7 -16 7 -12 7 -19 1 -19 -12 0 -24
37 -16 50 4 6 11 8 16 5 5 -4 9 0 9 7 1 8 9 4 19 -9 11 -13 25 -23 33 -22 10
0 10 2 1 6 -15 6 -17 33 -3 33 5 0 12 -11 16 -25 3 -14 10 -25 15 -25 11 0 11
3 -2 37 -5 15 -7 25 -4 21 5 -4 57 12 71 22 0 0 0 -16 1 -36z m49 -6 c16 2 16
1 4 -7 -28 -19 -40 -12 -39 22 1 30 2 30 8 7 5 -17 13 -24 27 -22z m18 27 c-7
-17 -20 -20 -28 -6 -7 10 3 21 20 21 8 0 11 -6 8 -15z m41 5 c9 -15 -5 -71
-16 -64 -12 7 -12 74 0 74 6 0 13 -5 16 -10z m66 -63 c-13 -13 -15 31 -3 60 5
14 8 10 10 -16 2 -18 -1 -38 -7 -44z m88 36 c0 -5 -4 -17 -9 -28 -8 -18 -9
-17 -9 8 -1 15 4 27 9 27 6 0 10 -3 9 -7z m-139 -108 c-17 -21 -54 -15 -58 9
-3 11 4 26 14 33 16 11 21 10 38 -6 16 -17 17 -22 6 -36z m330 49 c0 -11 -41
-64 -51 -64 -5 0 -1 16 8 35 9 19 23 35 30 35 7 0 13 -3 13 -6z m49 -66 c-8
-14 -14 -18 -17 -10 -4 13 17 46 25 38 3 -2 -1 -15 -8 -28z m-664 -24 c18 -18
16 -33 -7 -47 -35 -22 -66 21 -36 51 16 16 23 15 43 -4z m289 -6 c20 -29 20
-77 0 -128 -19 -47 -27 -49 -51 -14 -24 37 -23 116 1 143 24 26 31 26 50 -1z
m279 0 c24 -37 -25 -67 -53 -33 -10 13 -9 19 5 35 20 22 33 22 48 -2z m287
-71 c0 -6 -9 -2 -20 8 -11 10 -20 23 -20 28 0 6 9 2 20 -8 11 -10 20 -23 20
-28z m-51 -19 c-5 -10 -17 -18 -26 -18 -13 0 -13 -3 -3 -15 11 -14 14 -13 27
5 8 11 19 20 25 20 6 0 5 -6 -3 -16 -15 -19 -21 -47 -8 -38 5 3 7 9 4 14 -8
13 20 19 36 8 12 -8 11 -9 -2 -5 -8 3 -21 -3 -27 -14 -7 -10 -21 -19 -33 -19
-11 0 -18 4 -15 9 3 5 -2 15 -12 22 -15 12 -16 12 -5 -2 18 -23 -15 -49 -52
-40 -3 0 3 11 15 23 11 12 30 36 42 53 23 35 54 46 37 13z m-929 -73 c7 -8 49
-40 94 -70 97 -67 202 -156 246 -207 32 -37 23 -53 -11 -22 -12 11 -23 13 -35
6 -14 -8 -13 -10 10 -16 23 -6 38 -36 17 -36 -14 0 -62 41 -56 49 2 4 -12 23
-33 42 l-37 34 34 -37 c19 -21 31 -38 25 -38 -17 0 -284 286 -284 304 0 11 18
6 30 -9z m1010 5 c0 -6 -15 -19 -32 -29 -18 -11 -43 -30 -55 -42 -24 -25 -53
-20 -53 10 0 22 27 36 45 21 8 -7 19 -3 35 15 13 13 27 22 31 19 5 -3 9 0 9 5
0 6 5 11 10 11 6 0 10 -5 10 -10z m-470 -42 c0 -19 -2 -20 -10 -8 -5 8 -10 11
-10 5 0 -5 -25 -10 -55 -10 -40 0 -55 4 -55 14 0 9 9 12 30 9 17 -3 33 -2 35
1 2 4 17 8 34 9 26 2 31 -1 31 -20z m-170 -1 c0 -13 -38 -16 -57 -4 -6 4 -14
1 -16 -5 -3 -8 -6 -6 -6 5 -1 13 7 17 39 17 26 0 40 -5 40 -13z m30 4 c0 -6
-4 -13 -10 -16 -5 -3 -10 1 -10 9 0 9 5 16 10 16 6 0 10 -4 10 -9z m448 -8
c-6 -7 -7 -13 -3 -13 4 0 1 -8 -6 -17 -10 -12 -10 -14 -1 -9 7 4 15 1 18 -8 3
-9 14 -16 24 -16 11 0 22 -4 25 -10 3 -5 12 -10 18 -9 8 0 8 2 -1 6 -10 4 -9
9 4 24 9 10 21 16 25 13 5 -3 9 2 9 10 0 9 4 16 10 16 5 0 7 -6 4 -14 -5 -14
31 -46 51 -46 5 0 3 5 -5 11 -13 10 -13 10 1 6 9 -3 16 1 16 8 0 10 -5 11 -19
4 -19 -10 -38 -5 -38 10 0 5 8 19 18 31 14 18 19 19 19 7 0 -9 -4 -14 -8 -12
-4 3 -9 -2 -12 -9 -4 -10 1 -14 18 -13 13 1 24 -2 24 -7 -1 -5 5 -13 13 -17
10 -7 10 -9 0 -9 -7 0 -10 -5 -6 -12 4 -7 3 -8 -4 -4 -7 4 -12 3 -12 -3 0 -6
-7 -7 -17 -4 -12 5 -14 3 -9 -8 4 -8 1 -6 -6 3 -13 15 -15 15 -28 -5 -8 -12
-13 -27 -12 -33 2 -7 -10 -6 -33 5 -19 9 -33 21 -30 28 2 7 -1 15 -7 19 -6 4
-8 3 -4 -4 11 -17 -11 -23 -39 -10 -21 9 -36 9 -72 0 -36 -10 -49 -10 -57 -1
-8 9 -7 10 7 6 10 -4 16 -3 13 2 -3 5 9 23 28 39 19 17 32 33 29 36 -4 3 1 6
11 6 10 0 14 -5 10 -12 -4 -7 -3 -8 5 -4 8 5 9 12 2 20 -7 9 -4 12 14 12 19 0
22 -3 13 -13z m-100 -21 c-1 -4 -25 -28 -53 -52 l-50 -44 50 52 c48 50 60 61
53 44z m-1077 -75 c-10 -9 -11 -8 -5 6 3 10 9 15 12 12 3 -3 0 -11 -7 -18z
m678 13 c-6 -5 -18 -6 -26 -3 -19 8 -16 11 13 11 17 0 22 -3 13 -8z m638 -16
c-5 -6 0 -15 30 -48 10 -11 9 -15 -5 -21 -15 -6 -13 -10 13 -31 25 -20 27 -26
15 -34 -17 -11 -43 7 -33 23 3 6 1 7 -5 3 -7 -4 -12 -1 -12 8 0 8 -7 19 -16
24 -13 7 -14 13 -5 30 14 27 14 35 -1 26 -9 -5 -9 -2 1 9 7 9 16 17 19 17 3 0
3 -3 -1 -6z m80 -8 c-15 -12 -15 -15 -2 -26 12 -10 15 -10 15 0 0 8 3 11 6 7
3 -3 3 -11 -1 -17 -5 -8 -12 -7 -25 5 -9 8 -24 13 -34 9 -9 -3 -16 -2 -16 4 0
6 12 15 28 20 38 15 50 14 29 -2z m-1066 -26 c11 0 17 -4 14 -10 -3 -6 1 -7 9
-4 23 9 20 12 -16 23 -26 7 -28 9 -10 10 50 2 122 -50 153 -111 22 -42 25 -98
7 -99 -10 0 -10 -2 0 -6 14 -6 17 -43 2 -43 -5 0 -7 7 -4 15 4 9 -3 16 -20 21
-34 8 -35 33 -1 26 14 -2 25 0 25 7 0 5 -7 8 -15 5 -9 -4 -15 0 -15 10 0 9 -4
16 -9 16 -5 0 -12 13 -16 30 -4 16 -15 32 -26 35 -11 4 -16 11 -13 17 4 7 2 8
-4 4 -15 -9 -16 6 -1 21 8 8 8 13 0 18 -6 3 -10 1 -9 -5 2 -7 -8 -16 -22 -21
-13 -6 -21 -7 -17 -3 4 4 -1 13 -10 19 -14 11 -19 10 -29 -2 -19 -27 -31 -11
-21 27 7 29 10 32 18 17 6 -9 19 -17 30 -17z m890 6 c18 -8 23 -69 5 -63 -6 3
-10 8 -9 13 1 5 -19 10 -45 12 -55 3 -56 4 -48 35 5 22 9 24 43 17 21 -4 45
-11 54 -14z m-1027 2 c-5 -8 -2 -9 12 -4 10 4 33 10 49 12 21 3 17 0 -15 -12
-49 -18 -68 -30 -33 -22 12 3 24 1 27 -6 2 -6 5 -3 5 7 1 16 31 26 31 9 0 -15
-24 -32 -46 -32 -13 0 -26 -6 -30 -12 -4 -7 -4 -10 1 -6 10 10 38 -20 40 -43
2 -22 41 -79 55 -79 6 0 10 6 10 14 0 7 10 26 21 40 20 25 20 29 6 44 -9 9
-20 12 -24 8 -4 -4 -2 -11 6 -15 10 -7 9 -9 -3 -14 -10 -4 -13 -13 -9 -23 5
-14 3 -15 -16 -5 -16 9 -20 18 -15 33 4 13 1 24 -7 29 -10 6 -10 9 -2 9 6 0
15 -5 18 -10 4 -6 12 -4 22 5 14 15 17 14 30 -5 14 -20 16 -20 34 -4 17 16 19
15 31 -10 10 -23 9 -29 -2 -36 -9 -6 -17 -4 -22 3 -10 15 -45 -27 -54 -63 -3
-14 -10 -37 -16 -52 -5 -14 -7 -37 -3 -49 6 -18 4 -21 -10 -16 -9 4 -21 7 -26
7 -6 0 -7 5 -4 10 4 6 11 8 16 5 5 -4 9 9 9 27 0 21 -13 50 -35 83 -20 28 -47
67 -60 88 -14 20 -28 37 -31 37 -4 0 -1 -6 5 -14 9 -11 7 -23 -9 -52 -25 -47
-28 -83 -5 -64 8 7 12 16 9 21 -12 19 7 27 34 13 29 -15 34 -31 19 -52 -7 -9
-6 -11 5 -7 8 3 23 -4 33 -15 18 -20 18 -21 -3 -43 -17 -18 -19 -26 -10 -35 8
-8 5 -10 -16 -6 -24 4 -26 2 -17 -14 18 -34 52 -48 102 -42 44 5 99 32 99 48
0 4 -21 22 -46 41 -24 19 -42 36 -39 39 3 3 14 -3 25 -13 11 -10 23 -16 26
-12 3 3 16 -3 27 -14 21 -19 21 -19 34 5 13 24 43 43 43 26 0 -6 -6 -10 -12
-10 -9 0 -8 -4 2 -10 11 -7 11 -10 2 -10 -7 0 -10 -4 -7 -10 3 -5 1 -10 -5
-10 -6 0 -8 -4 -5 -10 3 -5 -2 -10 -12 -10 -15 0 -15 -2 -3 -9 10 -7 20 -1 37
27 25 41 31 37 9 -6 -20 -38 -53 -66 -112 -94 -45 -22 -55 -23 -100 -13 -62
14 -75 22 -68 40 4 8 11 12 17 8 6 -4 7 -1 2 7 -6 10 -11 9 -21 -5 -8 -10 -17
-16 -20 -12 -4 4 -1 15 7 24 13 16 12 17 -3 4 -23 -18 -40 -4 -70 57 -23 46
-26 102 -7 102 6 0 7 -5 3 -12 -4 -7 -3 -8 4 -4 17 10 15 26 -3 26 -25 0 -18
40 8 41 16 1 18 2 5 6 -10 2 -18 8 -18 12 0 13 69 86 70 74 0 -7 4 -13 8 -13
5 0 8 10 7 23 -2 22 2 37 11 37 3 0 2 -5 -2 -12z m891 -3 c-24 -8 -32 -13 -20
-14 17 -1 17 -3 5 -11 -8 -5 -10 -10 -4 -10 22 0 45 -26 38 -43 -7 -20 -26
-23 -23 -4 3 26 -2 37 -16 37 -18 0 -19 -5 -4 -33 12 -22 12 -22 -10 -3 -11
11 -21 15 -21 11 0 -4 -9 0 -20 10 -11 10 -20 13 -20 7 0 -6 5 -12 11 -14 7
-2 2 -21 -12 -52 -24 -47 -24 -48 -4 -62 17 -12 18 -16 5 -24 -8 -5 -19 -6
-25 -2 -5 3 -4 -2 4 -11 15 -19 1 -23 -17 -5 -9 9 -12 9 -12 0 0 -7 6 -12 13
-13 9 0 9 -2 0 -5 -19 -8 16 -74 36 -67 12 4 13 2 3 -4 -10 -7 -8 -14 9 -29
21 -19 22 -19 15 2 -5 17 4 34 44 75 55 60 70 51 16 -9 -19 -21 -37 -51 -41
-67 -5 -24 -4 -26 4 -13 10 15 51 15 51 -1 0 -8 86 2 112 13 26 11 50 53 36
62 -6 4 -8 3 -4 -4 3 -6 2 -13 -4 -17 -5 -3 -10 0 -10 7 0 7 -16 24 -35 38
-54 39 -41 42 21 5 31 -19 61 -37 68 -40 8 -3 7 -7 -2 -11 -6 -3 -9 -10 -6
-15 3 -6 14 0 25 12 21 25 24 39 8 39 -5 0 -7 -4 -4 -10 3 -5 2 -10 -4 -10
-21 0 -21 21 0 48 20 25 21 25 16 5 -3 -13 -2 -23 3 -23 4 0 10 9 13 20 4 15
-1 22 -19 26 -13 3 -24 12 -24 20 0 20 27 17 39 -3 9 -15 10 -14 7 7 -3 14 -5
36 -6 50 -2 24 -3 24 -11 -5 -8 -28 -8 -28 -4 7 4 38 -16 70 -30 48 -4 -6 -3
-9 2 -8 10 4 13 -5 13 -34 0 -21 -2 -20 -16 7 -8 17 -19 34 -24 39 -6 6 -3 17
8 30 16 19 16 19 -3 12 -16 -6 -18 -5 -7 6 11 11 17 9 33 -12 57 -73 71 -133
47 -214 -16 -51 -81 -117 -130 -133 -36 -10 -38 -10 -39 10 -2 22 -2 21 -6 0
-5 -26 -16 -28 -78 -12 -56 14 -129 88 -145 148 -26 99 25 204 120 245 19 8
44 15 55 15 11 0 2 -6 -20 -14z m-265 -4 c0 -5 -7 -12 -16 -15 -14 -5 -15 -4
-4 9 14 17 20 19 20 6z m-833 -33 c-3 -7 -5 -2 -5 12 0 14 2 19 5 13 2 -7 2
-19 0 -25z m644 10 c11 -21 11 -22 -4 -9 -10 7 -17 17 -17 22 0 15 9 10 21
-13z m477 10 c-6 -18 -25 -21 -25 -3 0 8 7 15 15 15 7 0 12 -5 10 -12z m291
-32 c-12 -10 -49 -16 -49 -7 0 5 10 11 23 13 22 4 34 1 26 -6z m-259 -22 c0
-8 5 -14 10 -14 6 0 10 9 10 20 0 11 5 20 10 20 6 0 10 -5 10 -12 0 -6 3 -8 6
-5 4 4 20 -3 35 -14 24 -17 27 -24 19 -40 -11 -20 -40 -27 -40 -9 0 6 -5 10
-11 10 -6 0 -9 -6 -6 -14 3 -8 -1 -20 -8 -26 -29 -24 -41 -65 -38 -128 4 -63
0 -70 -27 -52 -10 6 -11 10 -2 10 6 0 12 7 12 15 0 8 -6 15 -12 16 -10 0 -10
2 0 6 23 9 13 65 -23 119 -20 29 -40 56 -45 59 -6 3 -10 14 -10 23 1 16 2 15
14 -1 8 -10 18 -17 22 -16 19 3 28 -2 17 -9 -9 -6 -5 -17 15 -42 l28 -33 24
39 c34 55 34 54 7 54 -18 0 -26 6 -29 25 -3 13 -1 22 3 19 5 -3 9 -12 9 -20z
m275 6 c-3 -5 -1 -10 5 -10 6 0 8 -4 5 -10 -3 -5 -2 -10 3 -10 5 0 9 -7 9 -15
0 -8 -9 -15 -21 -15 -12 0 -32 -3 -45 -7 -17 -4 -22 -3 -17 5 4 7 20 12 37 12
16 0 29 5 29 10 0 6 -8 10 -17 10 -15 0 -16 2 -3 10 8 5 11 10 7 10 -9 0 1 20
9 20 3 0 2 -4 -1 -10z m-1438 -32 c-3 -7 -5 -2 -5 12 0 14 2 19 5 13 2 -7 2
-19 0 -25z m740 -40 c-2 -13 -4 -5 -4 17 -1 22 1 32 4 23 2 -10 2 -28 0 -40z
m418 12 c-8 -9 -12 -20 -8 -25 5 -4 3 -5 -4 -2 -15 9 -5 44 13 44 12 0 12 -3
-1 -17z m-1168 -27 c-3 -10 -5 -4 -5 12 0 17 2 24 5 18 2 -7 2 -21 0 -30z
m1097 -30 c9 -18 12 -32 8 -32 -4 1 -18 0 -32 -1 -25 -2 -25 -2 3 -9 27 -6 27
-6 6 -19 -11 -8 -18 -9 -14 -3 6 10 -7 15 -28 12 -4 -1 -1 12 8 28 17 34 21
66 5 41 -9 -13 -11 -13 -19 0 -6 9 -6 19 0 27 15 17 43 -2 63 -44z m-635 13
c0 -7 -2 -6 -6 2 -2 6 -9 12 -14 12 -6 0 -8 -4 -4 -9 3 -6 -4 -8 -15 -6 -11 2
-18 0 -15 -6 4 -5 -2 -9 -12 -9 -13 0 -10 -4 9 -14 49 -26 51 -28 37 -37 -8
-4 -18 -1 -27 9 -7 9 -11 11 -7 5 4 -8 1 -11 -9 -7 -33 13 -30 74 4 74 10 0
22 5 25 10 8 13 35 -6 34 -24z m836 24 c-3 -5 -1 -10 6 -10 18 0 4 -11 -18
-14 -10 -2 -21 1 -24 7 -4 5 -6 -4 -6 -21 1 -17 5 -28 9 -26 5 3 8 0 8 -6 0
-7 7 -10 15 -7 8 4 17 1 21 -5 4 -6 3 -8 -3 -5 -6 4 -14 0 -17 -9 -3 -8 -10
-12 -16 -9 -6 4 -7 12 -4 18 5 9 4 9 -6 0 -9 -8 -18 -6 -35 9 -20 17 -22 24
-13 44 6 13 14 21 19 19 4 -3 10 -1 14 5 4 6 10 8 14 6 4 -3 13 -1 21 5 19 11
23 11 15 -1z m171 -17 c-7 -7 -26 7 -26 19 0 6 6 6 15 -2 9 -7 13 -15 11 -17z
m-616 -23 c0 -5 -2 -10 -4 -10 -3 0 -8 5 -11 10 -3 6 -1 10 4 10 6 0 11 -4 11
-10z m608 -8 c2 -8 -10 -12 -37 -12 -39 0 -55 13 -28 23 20 9 61 1 65 -11z
m-1368 -2 c0 -5 -18 -10 -41 -10 -24 0 -38 4 -34 10 3 6 22 10 41 10 19 0 34
-4 34 -10z m357 4 c-3 -3 -12 -4 -19 -1 -8 3 -5 6 6 6 11 1 17 -2 13 -5z m840
0 c-3 -3 -12 -4 -19 -1 -8 3 -5 6 6 6 11 1 17 -2 13 -5z m-1247 -35 c0 -5 5
-7 10 -4 6 4 22 9 37 11 24 5 25 3 12 -12 -9 -12 -10 -15 -1 -10 7 4 12 2 12
-7 0 -10 -7 -13 -21 -10 -14 4 -18 11 -14 22 5 13 4 14 -6 4 -18 -18 -49 -16
-49 2 0 8 5 15 10 15 6 0 10 -5 10 -11z m1422 -6 c-10 -4 -10 -8 -2 -19 19
-22 3 -33 -35 -24 -26 6 -35 5 -32 -3 2 -7 14 -11 25 -9 15 2 22 -2 22 -14 0
-12 -6 -15 -27 -11 -20 4 -32 -1 -45 -16 -23 -26 -23 -6 -1 36 9 18 18 37 18
42 4 24 6 26 16 19 8 -4 7 -9 -2 -15 -10 -6 -7 -9 12 -9 14 0 30 -5 37 -12 8
-8 12 -8 12 -1 0 6 -10 18 -22 27 -13 9 -18 15 -13 12 6 -3 17 -1 25 4 8 5 17
6 20 3 3 -3 -1 -8 -8 -10z m-428 -44 l18 -31 -23 7 c-26 8 -39 22 -39 43 0 23
26 12 44 -19z m-964 11 c0 -5 -11 -10 -25 -10 -14 0 -25 5 -25 10 0 6 11 10
25 10 14 0 25 -4 25 -10z m307 -42 c0 -10 -6 -19 -14 -22 -16 -7 -17 6 0 23 8
8 8 11 1 9 -7 -2 -12 0 -13 5 -3 23 0 27 12 15 8 -7 14 -21 14 -30z m846 20
c6 -19 -3 -38 -18 -38 -13 0 -27 35 -17 44 10 10 30 6 35 -6z m-1168 -7 c-3
-5 4 -16 15 -24 24 -16 16 -27 -19 -27 -24 0 -24 1 -5 15 19 15 19 15 -1 9
-16 -5 -17 -4 -5 5 11 8 12 11 2 11 -7 0 -10 5 -7 10 3 6 11 10 16 10 6 0 8
-4 4 -9z m1412 -23 c-3 -8 -6 -5 -6 6 -1 11 2 17 5 13 3 -3 4 -12 1 -19z
m-1170 -3 c0 -8 -4 -15 -8 -15 -11 0 -20 16 -12 24 11 11 20 7 20 -9z m37 -10
c-4 -8 -10 -12 -15 -9 -14 8 -10 24 6 24 9 0 12 -6 9 -15z m1006 -15 c0 -5 -5
-10 -11 -10 -5 0 -7 5 -4 10 3 6 8 10 11 10 2 0 4 -4 4 -10z m-625 -47 c-55
-12 -86 -26 -110 -51 -33 -33 -50 -62 -35 -62 5 0 10 7 10 16 0 9 5 12 12 8 6
-4 8 -3 4 4 -3 6 -2 13 4 17 5 3 10 3 10 -2 0 -16 -35 -93 -43 -93 -5 0 -5 5
-2 10 3 6 1 10 -4 10 -6 0 -11 -4 -11 -8 0 -14 23 -32 42 -32 10 0 18 -7 18
-15 0 -8 -7 -15 -15 -15 -18 0 -18 1 -4 -39 12 -35 21 -38 40 -14 11 12 11 17
2 20 -8 3 -3 13 13 28 15 14 21 26 14 30 -5 3 -14 -4 -18 -16 -6 -16 -11 -19
-17 -10 -4 8 -3 16 4 20 7 5 4 13 -10 24 -11 10 -19 23 -17 28 6 17 23 10 23
-9 0 -9 7 -16 15 -15 9 2 21 -6 28 -17 10 -17 9 -23 -5 -38 -10 -10 -19 -26
-20 -36 -1 -14 6 -12 31 13 40 38 60 41 24 4 -29 -31 -51 -80 -42 -94 3 -5 14
-9 25 -9 10 0 19 -5 19 -11 0 -5 5 -7 12 -3 8 5 9 0 6 -14 -4 -12 -2 -22 3
-22 5 0 9 8 9 19 0 14 10 20 47 25 30 4 51 2 57 -5 8 -8 4 -9 -14 -4 -20 5
-22 4 -10 -5 12 -10 11 -11 -7 -7 -18 4 -23 1 -23 -14 0 -15 -7 -19 -32 -19
-63 0 -112 21 -155 66 -45 47 -72 112 -50 126 9 6 9 8 0 8 -20 0 -15 49 8 97
33 68 95 111 159 111 19 0 21 -1 5 -5z m107 -5 c25 -7 54 -28 78 -55 102 -116
61 -278 -82 -332 -16 -6 -28 -7 -28 -3 0 4 16 14 37 21 30 11 33 15 20 23 -10
5 -17 15 -17 22 0 23 -23 36 -37 21 -6 -7 -11 -14 -10 -16 1 -2 -5 3 -14 11
-20 19 -16 24 21 26 18 1 31 -4 35 -14 5 -14 7 -14 15 -2 5 9 5 17 -1 20 -5 4
-3 14 6 26 11 13 13 14 9 3 -3 -10 1 -19 10 -22 9 -4 17 1 21 14 4 12 12 18
21 15 9 -3 14 1 14 14 0 13 -5 18 -15 14 -10 -4 -15 0 -15 14 0 13 9 22 26 26
22 6 25 11 19 34 -8 35 -21 47 -30 31 -5 -7 -4 -10 3 -5 7 4 10 -1 9 -14 -2
-28 -9 -25 -30 12 -12 22 -15 34 -7 42 7 7 10 5 10 -8 0 -10 5 -14 11 -10 15
9 -48 70 -81 78 -14 3 -19 3 -12 0 6 -3 9 -11 6 -16 -4 -7 -2 -8 4 -4 7 4 12
2 12 -3 0 -6 -11 -11 -25 -11 -29 0 -45 27 -25 40 9 6 4 10 -16 13 -24 3 -25
4 -5 6 13 0 41 -4 63 -11z m-102 -24 c0 -9 -9 -18 -20 -21 -11 -3 -17 -9 -14
-14 3 -5 3 -9 -1 -9 -3 0 -9 10 -14 23 -6 16 -4 24 8 29 27 11 41 9 41 -8z
m40 -2 c0 -10 -7 -19 -15 -19 -8 0 -15 9 -15 19 0 10 7 18 15 18 8 0 15 -8 15
-18z m-103 -32 c-6 -23 31 -36 40 -14 7 20 22 17 19 -3 -2 -11 -11 -18 -23
-17 -30 2 -17 -42 22 -71 17 -14 34 -25 37 -25 13 0 57 81 52 95 -3 8 -1 15 6
15 6 0 8 -5 4 -12 -4 -6 -3 -8 3 -5 6 4 13 21 17 38 6 32 6 32 27 13 l21 -19
-22 -9 c-11 -5 -19 -15 -16 -22 3 -8 1 -16 -5 -19 -5 -4 -7 -11 -3 -16 3 -6
-2 -9 -12 -7 -13 2 -25 -9 -39 -35 l-20 -38 28 -24 c28 -25 33 -35 18 -35 -26
0 -184 158 -177 177 3 8 2 12 -3 9 -5 -3 -11 3 -14 14 -3 12 1 24 11 29 22 12
35 3 29 -19z m-399 -24 c3 -11 -4 -26 -14 -33 -15 -11 -20 -10 -35 3 -14 13
-16 21 -8 36 13 24 52 20 57 -6z m498 2 c-3 -13 -6 -38 -6 -57 0 -47 -6 -36
-14 27 -6 44 -4 52 10 52 12 0 15 -6 10 -22z m-591 -58 c-10 -11 -28 -20 -39
-20 -18 0 -17 3 9 20 39 26 53 26 30 0z m145 -10 c0 -5 -5 -10 -11 -10 -5 0
-7 5 -4 10 3 6 8 10 11 10 2 0 4 -4 4 -10z m570 -11 c0 -5 5 -7 11 -4 6 4 5
-2 -3 -14 -7 -12 -22 -21 -33 -20 -18 0 -18 1 3 9 24 10 27 16 13 24 -4 3 -23
-6 -42 -21 -19 -14 -26 -23 -17 -20 9 3 22 -1 30 -11 9 -11 10 -14 1 -8 -8 4
-13 2 -13 -4 0 -15 -34 19 -36 36 -1 8 2 12 7 8 5 -3 9 -1 9 3 0 9 38 30 58
32 6 0 12 -4 12 -10z m494 -53 c-9 -15 -19 -25 -21 -22 -3 2 3 16 13 30 9 15
19 25 21 22 3 -2 -3 -16 -13 -30z m-374 -34 c0 -4 -9 -15 -20 -25 -11 -9 -20
-12 -20 -7 0 6 7 13 16 17 13 5 13 7 2 14 -10 7 -9 9 5 9 9 0 17 -3 17 -8z
m-241 -15 c10 4 8 -2 -7 -17 -13 -12 -26 -19 -30 -15 -3 3 0 10 7 14 9 6 10
11 2 15 -13 9 -25 -18 -18 -38 5 -12 -2 -14 -31 -7 -2 1 6 15 19 32 14 20 25
27 31 21 6 -6 18 -8 27 -5z m-274 -17 c15 -16 16 -22 5 -35 -17 -21 -54 -15
-58 8 -4 18 14 47 28 47 4 0 15 -9 25 -20z m573 -23 c-4 -32 -54 -36 -63 -6
-5 16 -2 26 10 35 25 18 57 0 53 -29z m-758 -6 c-10 -20 -30 -37 -30 -26 0 11
25 45 33 45 4 0 3 -9 -3 -19z m251 -21 c6 -16 15 -28 20 -25 4 3 18 -6 31 -20
12 -14 30 -25 40 -25 10 0 18 -4 18 -9 0 -5 13 -7 30 -5 29 5 30 4 20 -21 -6
-15 -8 -31 -4 -36 3 -5 -1 -9 -8 -9 -10 0 -9 -3 2 -10 8 -5 11 -12 7 -17 -9
-9 -28 17 -21 29 7 11 -15 48 -29 48 -7 0 -6 -4 3 -10 13 -8 13 -10 -2 -10 -9
0 -20 -5 -24 -12 -4 -7 -3 -8 4 -4 7 4 12 2 12 -3 0 -6 -6 -11 -12 -12 -10 0
-10 -2 0 -6 17 -7 15 -20 -3 -20 -8 0 -15 4 -15 9 0 5 -3 7 -7 5 -5 -3 -9 6
-9 19 -1 13 2 22 6 19 5 -3 12 0 16 6 5 8 3 9 -6 4 -10 -6 -12 -4 -7 9 5 12 3
15 -6 9 -21 -13 -35 -11 -56 8 -12 11 -22 15 -26 9 -3 -6 -1 -10 5 -10 6 0 8
-5 5 -10 -4 -6 -11 -8 -16 -5 -5 3 -6 0 -3 -8 3 -8 -2 -17 -10 -20 -12 -5 -14
0 -10 26 l5 32 -16 -27 c-22 -38 -28 -35 -11 6 9 23 11 38 4 47 -8 11 -9 10
-4 -3 3 -10 2 -18 -3 -18 -5 0 -11 9 -14 20 -3 11 -2 18 2 15 5 -2 17 3 27 11
10 9 12 12 4 8 -8 -4 -4 4 10 19 32 34 39 34 51 -3z m204 10 c3 -5 2 -10 -4
-10 -5 0 -13 5 -16 10 -3 6 -2 10 4 10 5 0 13 -4 16 -10z m-392 -33 c3 -7 -4
-19 -15 -26 -11 -7 -18 -9 -16 -4 3 4 8 16 11 26 8 20 13 22 20 4z m67 -27
c-11 -22 -25 -40 -30 -40 -14 0 -13 4 11 44 29 49 44 46 19 -4z m22 -52 c-6
-6 -12 -6 -16 1 -4 6 -3 11 3 11 6 0 8 8 5 18 -5 15 -4 15 6 -1 8 -13 9 -22 2
-29z m102 -33 c-5 -19 -9 -23 -15 -14 -4 7 -3 21 3 32 13 26 21 15 12 -18z
m36 5 c0 -11 -4 -20 -9 -20 -5 0 -7 9 -4 20 3 11 7 20 9 20 2 0 4 -9 4 -20z
m77 -32 c-3 -7 -5 -2 -5 12 0 14 2 19 5 13 2 -7 2 -19 0 -25z"/>
<path d="M2848 4444 c4 -22 6 -24 14 -10 5 9 15 14 21 10 7 -3 3 2 -7 10 -28
22 -34 20 -28 -10z"/>
<path d="M2879 4428 c0 -2 -2 -12 -4 -23 -2 -12 -16 -54 -30 -95 -27 -80 -32
-115 -14 -105 6 4 8 13 5 21 -3 8 -1 14 4 14 5 0 7 7 3 15 -3 10 0 15 8 13 9
-2 14 9 14 37 1 22 8 55 17 73 9 17 12 32 7 32 -6 0 -7 5 -4 10 3 6 4 10 1 10
-3 0 -6 -1 -7 -2z m-22 -150 c-3 -8 -6 -5 -6 6 -1 11 2 17 5 13 3 -3 4 -12 1
-19z"/>
<path d="M2535 4359 c-9 -14 3 -61 14 -54 5 3 7 -4 4 -16 -5 -18 -7 -19 -15
-5 -5 9 -14 16 -21 16 -9 0 -8 -3 1 -9 7 -4 12 -12 11 -17 -4 -20 2 -24 21
-14 21 11 27 44 10 55 -6 4 -7 11 -4 17 5 7 2 8 -6 3 -9 -5 -10 -2 -5 14 7 22
1 28 -10 10z"/>
<path d="M2570 4340 c0 -5 10 -15 23 -21 22 -12 22 -12 3 10 -21 23 -26 26
-26 11z"/>
<path d="M3225 4340 c-3 -5 -1 -10 4 -10 6 0 11 5 11 10 0 6 -2 10 -4 10 -3 0
-8 -4 -11 -10z"/>
<path d="M3434 4323 c4 -7 2 -13 -4 -13 -6 0 -8 -5 -4 -11 4 -8 9 -8 17 0 8 8
7 14 -2 24 -11 10 -13 10 -7 0z"/>
<path d="M2464 4298 l-19 -23 23 19 c21 18 27 26 19 26 -2 0 -12 -10 -23 -22z"/>
<path d="M3101 4304 c0 -11 3 -14 6 -6 3 7 2 16 -1 19 -3 4 -6 -2 -5 -13z"/>
<path d="M2490 4260 c0 -11 4 -20 10 -20 5 0 7 -8 3 -17 -5 -15 -3 -16 7 -6
11 10 11 15 1 27 -7 8 -10 20 -6 26 3 5 1 10 -4 10 -6 0 -11 -9 -11 -20z"/>
<path d="M2889 4243 c-13 -16 -12 -17 4 -4 16 13 21 21 13 21 -2 0 -10 -8 -17
-17z"/>
<path d="M3210 4256 c0 -2 7 -7 16 -10 8 -3 12 -2 9 4 -6 10 -25 14 -25 6z"/>
<path d="M2448 4211 c8 -4 13 -11 13 -15 -1 -3 1 -6 4 -6 3 0 8 0 11 0 4 0 1
7 -6 15 -7 8 -18 15 -24 15 -7 0 -6 -4 2 -9z"/>
<path d="M2417 4179 c7 -7 15 -10 18 -7 3 3 -2 9 -12 12 -14 6 -15 5 -6 -5z"/>
<path d="M2546 4092 c-3 -5 1 -9 9 -9 8 0 12 4 9 9 -3 4 -7 8 -9 8 -2 0 -6 -4
-9 -8z"/>
<path d="M2390 4059 c0 -7 -9 -9 -22 -6 -23 6 -23 6 -3 -9 12 -9 21 -11 23 -4
2 5 8 8 13 5 5 -4 6 1 3 9 -7 19 -14 21 -14 5z"/>
<path d="M2369 4016 c19 -11 21 -14 7 -19 -9 -4 -16 -11 -16 -17 0 -5 9 -2 20
8 19 16 19 18 3 29 -9 7 -22 13 -27 13 -6 -1 0 -7 13 -14z"/>
<path d="M2460 4026 c0 -2 7 -7 16 -10 8 -3 12 -2 9 4 -6 10 -25 14 -25 6z"/>
<path d="M3119 3993 c-13 -16 -12 -17 4 -4 16 13 21 21 13 21 -2 0 -10 -8 -17
-17z"/>
<path d="M2316 3976 c3 -8 14 -16 25 -19 25 -7 24 -3 -6 17 -19 13 -23 13 -19
2z"/>
<path d="M2320 3937 c14 -6 28 -16 32 -22 5 -6 8 -6 8 2 0 14 -32 33 -52 32
-7 0 -2 -6 12 -12z"/>
<path d="M2300 3910 c0 -5 5 -10 10 -10 18 0 6 -25 -15 -31 -18 -5 -17 -6 6
-10 23 -5 26 -2 24 20 -1 14 3 29 9 33 6 4 1 8 -11 8 -13 0 -23 -4 -23 -10z"/>
<path d="M2987 4303 c-10 -10 -8 -33 2 -33 6 0 9 9 8 20 -1 23 -1 22 -10 13z"/>
<path d="M2980 4241 c0 -6 4 -13 10 -16 6 -3 7 1 4 9 -7 18 -14 21 -14 7z"/>
<path d="M2980 4180 c0 -13 18 -22 24 -11 3 5 -1 11 -9 15 -8 3 -15 1 -15 -4z"/>
<path d="M2730 4036 c0 -3 9 -10 20 -16 11 -6 20 -8 20 -6 0 3 -9 10 -20 16
-11 6 -20 8 -20 6z"/>
<path d="M2835 3948 c33 -31 62 -54 65 -51 5 5 -43 47 -95 85 -16 12 -3 -4 30
-34z"/>
<path d="M3546 4003 c-6 -14 -5 -15 5 -6 7 7 10 15 7 18 -3 3 -9 -2 -12 -12z"/>
<path d="M2714 3904 c9 -11 16 -23 15 -28 0 -5 5 -13 13 -17 11 -7 11 -9 0 -9
-10 0 -9 -4 3 -16 9 -9 18 -14 20 -12 8 7 -39 92 -53 96 -10 3 -9 -1 2 -14z"/>
<path d="M3433 3973 c9 -2 15 -9 12 -14 -4 -5 -1 -9 4 -9 6 0 11 7 11 15 0 9
-9 15 -22 14 -18 -1 -19 -2 -5 -6z"/>
<path d="M3480 3960 c8 -5 20 -10 25 -10 6 0 3 5 -5 10 -8 5 -19 10 -25 10 -5
0 -3 -5 5 -10z"/>
<path d="M2410 3900 c0 -5 5 -10 10 -10 6 0 10 5 10 10 0 6 -4 10 -10 10 -5 0
-10 -4 -10 -10z"/>
<path d="M2555 3870 c-3 -6 1 -7 9 -4 18 7 21 14 7 14 -6 0 -13 -4 -16 -10z"/>
<path d="M2380 3830 c0 -5 5 -10 10 -10 6 0 10 5 10 10 0 6 -4 10 -10 10 -5 0
-10 -4 -10 -10z"/>
<path d="M2443 3803 c-7 -2 -13 -13 -13 -24 0 -15 -5 -18 -25 -15 -28 5 -29 2
-14 -43 11 -32 23 -39 35 -19 5 7 3 8 -6 3 -8 -5 -11 -4 -6 3 3 5 1 12 -5 14
-7 2 -10 10 -7 18 3 9 12 0 27 -23 23 -38 41 -48 41 -23 0 8 6 17 13 19 9 4 8
8 -3 16 -9 6 -18 7 -26 0 -9 -7 -12 -5 -9 8 1 10 8 17 14 16 6 -2 11 2 11 7 0
6 -4 10 -10 10 -5 0 -10 5 -10 11 0 5 4 7 10 4 6 -3 7 1 4 9 -3 9 -7 16 -8 15
0 0 -7 -3 -13 -6z"/>
<path d="M2492 3761 c-9 -6 -9 -11 1 -25 11 -15 15 -16 25 -3 10 11 9 17 -1
25 -7 6 -18 7 -25 3z"/>
<path d="M2435 3660 c-3 -5 -2 -10 4 -10 5 0 13 5 16 10 3 6 2 10 -4 10 -5 0
-13 -4 -16 -10z"/>
<path d="M2656 3618 c5 -8 2 -9 -9 -5 -10 3 -17 2 -17 -4 0 -6 -4 -7 -10 -4
-5 3 -10 1 -10 -4 0 -15 20 -13 49 3 20 11 21 14 7 19 -12 5 -15 3 -10 -5z"/>
<path d="M2501 3611 c-11 -7 -9 -10 8 -16 11 -3 25 -4 30 -1 5 4 12 0 14 -6 3
-8 6 -5 6 6 1 11 -4 16 -13 13 -7 -3 -18 -1 -22 3 -5 5 -15 5 -23 1z"/>
<path d="M2587 3595 c-4 -8 -2 -17 3 -20 6 -4 10 3 10 14 0 25 -6 27 -13 6z"/>
<path d="M3315 3950 c3 -5 8 -10 11 -10 2 0 4 5 4 10 0 6 -5 10 -11 10 -5 0
-7 -4 -4 -10z"/>
<path d="M3535 3910 c-3 -6 1 -7 9 -4 18 7 21 14 7 14 -6 0 -13 -4 -16 -10z"/>
<path d="M3246 3894 c-3 -9 -4 -20 0 -25 3 -5 -3 -9 -13 -9 -15 0 -16 -2 -3
-10 8 -5 10 -10 4 -10 -6 0 -11 -11 -11 -25 0 -26 7 -28 11 -3 1 7 8 23 14 36
7 12 10 27 7 32 -3 6 1 10 10 10 9 0 13 5 10 10 -9 15 -22 12 -29 -6z"/>
<path d="M3490 3627 c-27 -22 -23 -38 5 -25 14 6 25 17 25 25 0 16 -10 16 -30
0z"/>
<path d="M3530 3629 c0 -5 5 -7 10 -4 6 3 10 8 10 11 0 2 -4 4 -10 4 -5 0 -10
-5 -10 -11z"/>
<path d="M3342 3611 c-10 -6 -5 -11 19 -20 40 -14 39 -14 39 4 0 12 -7 14 -26
9 -19 -5 -25 -4 -20 5 8 13 6 14 -12 2z"/>
<path d="M3466 3901 c-4 -5 -2 -12 3 -15 5 -4 12 -2 15 3 4 5 2 12 -3 15 -5 4
-12 2 -15 -3z"/>
<path d="M3321 3794 c0 -11 3 -14 6 -6 3 7 2 16 -1 19 -3 4 -6 -2 -5 -13z"/>
<path d="M3469 3783 c-13 -16 -12 -17 4 -4 16 13 21 21 13 21 -2 0 -10 -8 -17
-17z"/>
<path d="M2790 3400 c0 -5 5 -10 11 -10 5 0 7 5 4 10 -3 6 -8 10 -11 10 -2 0
-4 -4 -4 -10z"/>
<path d="M2811 3313 c17 -45 29 -55 48 -41 14 12 14 11 2 -5 -12 -15 -12 -19
5 -31 13 -10 21 -11 25 -4 5 7 9 6 11 -3 4 -11 5 -10 4 1 -1 8 -9 14 -19 12
-21 -4 -22 12 -2 32 9 9 11 17 5 21 -5 3 -10 2 -10 -2 0 -5 -9 -9 -20 -10 -11
-1 -18 2 -15 8 4 5 -2 9 -12 9 -15 0 -16 2 -3 10 11 7 11 10 2 10 -7 0 -10 5
-7 10 3 6 -1 10 -9 10 -13 0 -14 -5 -5 -27z"/>
<path d="M2921 3214 c0 -11 3 -14 6 -6 3 7 2 16 -1 19 -3 4 -6 -2 -5 -13z"/>
<path d="M3011 3204 c0 -11 3 -14 6 -6 3 7 2 16 -1 19 -3 4 -6 -2 -5 -13z"/>
<path d="M3177 3342 c-4 -19 -13 -32 -22 -32 -14 0 -19 -14 -18 -48 1 -9 -6
-12 -18 -9 -20 6 -26 -7 -8 -19 6 -3 23 5 38 20 22 23 24 28 11 36 -13 8 -12
10 2 10 18 0 34 38 26 62 -3 7 -7 -2 -11 -20z"/>
<path d="M2770 3260 c0 -5 1 -12 3 -14 1 -2 -7 -14 -18 -27 l-20 -23 27 20
c14 10 22 20 18 22 -5 2 -6 10 -3 18 3 8 2 14 -1 14 -3 0 -6 -4 -6 -10z"/>
<path d="M2775 3211 c-3 -5 -2 -12 3 -15 5 -3 9 1 9 9 0 17 -3 19 -12 6z"/>
<path d="M2868 4523 c12 -2 32 -2 45 0 12 2 2 4 -23 4 -25 0 -35 -2 -22 -4z"/>
<path d="M3158 4513 c7 -3 16 -2 19 1 4 3 -2 6 -13 5 -11 0 -14 -3 -6 -6z"/>
<path d="M3294 4078 l-19 -23 23 19 c21 18 27 26 19 26 -2 0 -12 -10 -23 -22z"/>
<path d="M3180 3983 c-41 -37 -79 -74 -84 -82 -10 -16 150 124 160 140 9 16 0
9 -76 -58z"/>
<path d="M3731 3944 c0 -11 3 -14 6 -6 3 7 2 16 -1 19 -3 4 -6 -2 -5 -13z"/>
<path d="M3742 3900 c0 -14 2 -19 5 -12 2 6 2 18 0 25 -3 6 -5 1 -5 -13z"/>
<path d="M3041 3828 c-18 -21 -40 -38 -47 -38 -8 0 -14 -4 -14 -10 0 -17 27
-11 34 7 5 11 10 13 17 6 12 -12 -5 -63 -22 -63 -7 0 -9 -3 -6 -7 4 -3 16 2
27 12 22 20 27 65 8 65 -6 0 -1 10 12 23 14 12 28 21 32 20 10 -4 10 15 1 20
-5 2 -23 -14 -42 -35z"/>
<path d="M2968 3748 c6 -6 18 -8 28 -6 14 3 12 5 -9 10 -19 3 -25 2 -19 -4z"/>
<path d="M3742 3660 c0 -19 2 -27 5 -17 2 9 2 25 0 35 -3 9 -5 1 -5 -18z"/>
<path d="M2242 3635 c0 -16 2 -22 5 -12 2 9 2 23 0 30 -3 6 -5 -1 -5 -18z"/>
<path d="M2251 3590 c0 -8 6 -28 14 -45 17 -39 18 -21 0 25 -7 19 -14 28 -14
20z"/>
<path d="M3610 3560 c6 -11 13 -20 16 -20 3 0 2 6 -2 13 -5 9 -4 9 6 0 18 -17
3 -38 -16 -22 -12 10 -15 10 -12 -1 2 -9 -6 -15 -21 -16 -23 -1 -31 3 -64 32
-10 9 -18 8 -32 -2 -10 -8 -15 -14 -11 -14 5 0 3 -7 -4 -15 -7 -8 -16 -13 -19
-10 -4 2 -8 -2 -8 -10 0 -8 4 -12 8 -9 4 2 10 -4 14 -15 6 -20 58 -44 71 -33
4 4 4 2 0 -5 -8 -14 14 -53 29 -53 6 0 16 9 23 20 10 17 9 22 -13 36 -31 20
-26 31 6 14 19 -11 24 -9 40 11 15 20 16 25 3 32 -8 4 -22 3 -31 -2 -13 -8
-14 -10 -4 -11 8 0 11 -3 8 -6 -8 -9 -38 16 -32 26 2 4 22 6 44 5 36 -2 41 1
50 26 9 25 7 28 -21 38 -40 14 -40 14 -28 -9z m-74 -61 c16 -17 16 -22 4 -29
-36 -23 -70 -1 -56 35 8 21 30 19 52 -6z m24 -79 c0 -5 -5 -10 -11 -10 -5 0
-7 5 -4 10 3 6 8 10 11 10 2 0 4 -4 4 -10z"/>
<path d="M3290 3551 c5 -11 15 -23 21 -27 6 -3 3 5 -6 20 -20 30 -30 35 -15 7z"/>
<path d="M2596 3532 c-2 -4 4 -8 14 -8 10 0 16 4 14 8 -3 4 -9 8 -14 8 -5 0
-11 -4 -14 -8z"/>
<path d="M2337 3508 c2 -5 13 -6 22 -3 11 3 18 0 18 -9 0 -8 -7 -12 -16 -9
-14 4 -14 4 -1 -6 21 -15 30 -14 30 7 0 14 2 15 10 2 5 -8 12 -12 15 -8 10 10
-38 37 -62 35 -12 0 -19 -5 -16 -9z"/>
<path d="M2285 3495 c32 -102 197 -301 293 -353 23 -13 42 -21 42 -19 0 3 -19
16 -42 30 -97 57 -186 158 -266 301 -18 33 -31 52 -27 41z"/>
<path d="M2747 3451 c-4 -17 -3 -21 5 -13 5 5 8 16 6 23 -3 8 -7 3 -11 -10z"/>
<path d="M3290 3441 c-8 -6 -18 -7 -22 -5 -10 6 -11 -10 -1 -19 3 -4 12 -2 20
5 8 6 31 15 51 19 l37 7 -35 1 c-19 0 -42 -3 -50 -8z"/>
<path d="M3392 3408 c2 -6 10 -14 16 -16 7 -2 10 2 6 12 -7 18 -28 22 -22 4z"/>
<path d="M3245 3400 c-3 -5 -1 -10 4 -10 6 0 11 5 11 10 0 6 -2 10 -4 10 -3 0
-8 -4 -11 -10z"/>
<path d="M3360 3359 c-21 -17 -22 -19 -3 -10 12 6 30 8 40 5 10 -3 14 -2 8 3
-5 4 -12 11 -15 15 -3 4 -16 -2 -30 -13z"/>
<path d="M2456 3341 c-4 -5 -2 -12 3 -15 5 -4 12 -2 15 3 4 5 2 12 -3 15 -5 4
-12 2 -15 -3z"/>
<path d="M3534 3248 l-19 -23 23 19 c21 18 27 26 19 26 -2 0 -12 -10 -23 -22z"/>
<path d="M3131 3143 c-1 -13 -6 -23 -12 -23 -5 0 -7 -4 -4 -10 3 -6 -1 -7 -10
-4 -9 4 -14 9 -11 11 3 3 -1 11 -7 18 -10 11 -15 10 -29 -2 -10 -9 -18 -23
-19 -32 0 -9 -5 -1 -10 17 -13 44 -25 40 -24 -8 0 -38 1 -40 33 -40 32 0 33 1
27 30 -4 19 -3 30 4 30 6 0 11 -12 11 -26 0 -24 2 -25 33 -19 41 9 40 7 28 46
-7 26 -9 28 -10 12z"/>
<path d="M3154 3147 c3 -10 6 -25 6 -33 0 -18 9 -18 53 1 38 16 43 45 7 42
-10 0 -16 -6 -13 -13 6 -17 -36 -12 -48 6 -9 12 -10 12 -5 -3z"/>
<path d="M3330 3110 c-9 -6 -10 -10 -3 -10 6 0 15 5 18 10 8 12 4 12 -15 0z"/>
<path d="M2700 3080 c8 -5 20 -10 25 -10 6 0 3 5 -5 10 -8 5 -19 10 -25 10 -5
0 -3 -5 5 -10z"/>
<path d="M3260 3080 c-8 -5 -10 -10 -5 -10 6 0 17 5 25 10 8 5 11 10 5 10 -5
0 -17 -5 -25 -10z"/>
<path d="M3188 3053 c7 -3 16 -2 19 1 4 3 -2 6 -13 5 -11 0 -14 -3 -6 -6z"/>
<path d="M2863 3033 c9 -2 25 -2 35 0 9 3 1 5 -18 5 -19 0 -27 -2 -17 -5z"/>
<path d="M3073 3033 c9 -2 25 -2 35 0 9 3 1 5 -18 5 -19 0 -27 -2 -17 -5z"/>
<path d="M2360 4381 c0 -6 4 -13 10 -16 6 -3 7 1 4 9 -7 18 -14 21 -14 7z"/>
<path d="M2216 4141 c-4 -5 -2 -12 3 -15 5 -4 12 -2 15 3 4 5 2 12 -3 15 -5 4
-12 2 -15 -3z"/>
<path d="M3740 3443 c0 -5 10 -18 23 -29 l22 -19 -20 25 c-11 14 -21 27 -22
29 -2 2 -3 0 -3 -6z"/>
<path d="M3580 3220 c-9 -6 -10 -10 -3 -10 6 0 15 5 18 10 8 12 4 12 -15 0z"/>
<path d="M2321 3261 c-7 -5 -9 -11 -4 -14 5 -3 15 -2 22 2 7 5 9 11 4 14 -5 3
-15 2 -22 -2z"/>
<path d="M2526 3083 c-6 -14 -5 -15 5 -6 7 7 10 15 7 18 -3 3 -9 -2 -12 -12z"/>
<path d="M2843 4723 c9 -2 23 -2 30 0 6 3 -1 5 -18 5 -16 0 -22 -2 -12 -5z"/>
<path d="M2798 4713 c7 -3 16 -2 19 1 4 3 -2 6 -13 5 -11 0 -14 -3 -6 -6z"/>
<path d="M2309 4473 c-13 -16 -12 -17 4 -4 16 13 21 21 13 21 -2 0 -10 -8 -17
-17z"/>
<path d="M2265 4430 c-3 -6 1 -7 9 -4 18 7 21 14 7 14 -6 0 -13 -4 -16 -10z"/>
<path d="M2375 3050 c10 -11 20 -20 23 -20 3 0 -3 9 -13 20 -10 11 -20 20 -23
20 -3 0 3 -9 13 -20z"/>
<path d="M3350 2900 c-8 -5 -10 -10 -5 -10 6 0 17 5 25 10 8 5 11 10 5 10 -5
0 -17 -5 -25 -10z"/>
<path d="M3208 2853 c7 -3 16 -2 19 1 4 3 -2 6 -13 5 -11 0 -14 -3 -6 -6z"/>
<path d="M3963 4271 c-30 -25 -29 -33 2 -19 14 6 25 17 25 25 0 16 0 16 -27
-6z"/>
<path d="M4040 3811 c0 -17 27 -30 58 -28 23 1 32 7 32 20 0 14 -9 17 -45 17
-25 0 -45 -4 -45 -9z"/>
<path d="M4040 3712 c0 -5 20 -9 45 -8 25 0 45 4 45 8 0 4 -20 8 -45 8 -25 0
-45 -4 -45 -8z"/>
<path d="M3884 3231 c10 -15 66 -44 66 -33 0 7 -20 20 -64 40 -5 3 -6 -1 -2
-7z"/>
<path d="M2290 3015 c0 -16 13 -31 35 -39 17 -6 18 -5 5 6 -8 7 -20 20 -27 28
-7 8 -12 11 -13 5z"/>
<path d="M2310 2965 c0 -4 12 -42 28 -84 26 -71 77 -141 104 -141 14 0 4 93
-11 98 -24 8 -66 49 -92 91 -16 25 -29 41 -29 36z m107 -159 c0 -13 -26 -11
-28 3 0 3 -2 14 -4 24 -3 17 -2 17 14 3 10 -9 18 -22 18 -30z"/>
<path d="M3654 2987 c-16 -17 -22 -26 -14 -19 27 23 29 12 8 -39 -14 -33 -38
-65 -70 -92 -36 -31 -48 -49 -48 -69 0 -16 3 -28 6 -28 18 0 64 37 74 59 21
45 81 214 77 217 -2 2 -17 -11 -33 -29z"/>
<path d="M3445 2840 c-3 -5 -2 -10 4 -10 5 0 13 5 16 10 3 6 2 10 -4 10 -5 0
-13 -4 -16 -10z"/>
<path d="M2530 2750 c24 -8 226 -12 205 -5 -5 2 -59 5 -120 8 -60 2 -99 1 -85
-3z"/>
<path d="M3447 2764 c-3 -4 -52 -10 -109 -14 l-103 -8 108 2 c98 3 128 8 115
21 -2 3 -7 2 -11 -1z"/>
<path d="M2542 2639 c6 -17 208 -26 208 -9 0 6 -30 10 -74 10 -40 0 -88 3
-106 7 -25 5 -32 3 -28 -8z"/>
<path d="M2565 2570 c3 -5 45 -10 92 -10 48 0 84 2 82 4 -11 9 -180 15 -174 6z"/>
<path d="M3328 2643 c-122 -5 -112 -23 12 -23 82 0 100 3 100 15 0 8 -6 14
-12 13 -7 -1 -52 -4 -100 -5z"/>
<path d="M3283 2563 c26 -2 68 -2 95 0 26 2 4 3 -48 3 -52 0 -74 -1 -47 -3z"/>
<path d="M2820 2468 c0 -5 77 -8 170 -8 97 0 170 4 170 9 0 6 -72 9 -170 8
-93 -1 -170 -5 -170 -9z"/>
<path d="M2672 2483 c-92 -5 -86 -23 9 -23 55 0 69 3 69 15 0 8 -1 14 -2 13
-2 -1 -36 -4 -76 -5z"/>
<path d="M3300 2470 l-75 -6 78 -2 c46 -1 77 2 77 8 0 6 -1 9 -2 8 -2 -1 -37
-4 -78 -8z"/>
<path d="M2315 2343 c-22 -2 -123 -10 -225 -18 -184 -15 -569 -70 -730 -105
-87 -18 -82 -27 6 -11 221 42 616 92 907 115 98 8 181 17 184 20 6 6 -67 6
-142 -1z"/>
<path d="M3510 2340 c0 -6 26 -10 58 -10 174 0 909 -86 1079 -126 19 -5 25 -3
18 4 -15 15 -423 81 -655 106 -55 6 -461 36 -486 36 -8 0 -14 -4 -14 -10z"/>
<path d="M2548 2263 c-4 -34 8 -45 18 -18 4 9 19 15 35 15 l29 0 0 -80 c0 -62
-3 -82 -15 -86 -8 -4 -15 -9 -15 -13 0 -8 89 -6 97 3 4 3 1 6 -5 6 -6 0 -12
32 -14 85 l-3 85 28 0 c15 0 30 -7 33 -15 11 -27 20 -16 16 18 l-4 32 -98 0
-98 0 -4 -32z"/>
<path d="M2860 2288 c0 -5 5 -8 10 -8 6 0 10 -38 10 -95 0 -57 -4 -95 -10 -95
-5 0 -10 -3 -10 -7 0 -5 20 -8 45 -8 25 0 45 3 45 7 0 5 -4 8 -10 8 -5 0 -10
18 -10 40 l0 40 50 0 50 0 0 -40 c0 -22 -4 -40 -10 -40 -5 0 -10 -3 -10 -7 0
-5 20 -8 45 -8 25 0 45 3 45 8 0 4 -4 7 -10 7 -6 0 -10 38 -10 95 0 57 4 95
10 95 6 0 10 3 10 8 0 4 -20 7 -45 7 -25 0 -45 -3 -45 -7 0 -5 5 -8 10 -8 6 0
10 -17 10 -37 l0 -38 -50 0 -50 0 0 38 c0 20 5 37 10 37 6 0 10 3 10 8 0 4
-20 7 -45 7 -25 0 -45 -3 -45 -7z"/>
<path d="M3214 2289 c-2 -4 3 -9 11 -13 12 -4 15 -25 15 -96 0 -77 -2 -90 -17
-90 -9 0 -14 -3 -10 -6 3 -4 46 -7 96 -8 l89 -1 5 30 c6 36 -1 46 -14 22 -7
-12 -23 -17 -54 -17 -45 0 -45 0 -45 35 0 23 4 33 13 31 6 -3 26 -7 42 -9 28
-5 30 -3 31 24 2 29 -9 38 -21 19 -3 -5 -19 -10 -36 -10 -26 0 -29 3 -29 33 0
32 0 32 45 29 25 -2 45 -8 45 -13 0 -5 5 -9 10 -9 6 0 10 12 10 28 l0 27 -91
0 c-50 0 -93 -3 -95 -6z"/>
<path d="M1835 2195 c-242 -6 -479 -10 -527 -9 -49 1 -88 -2 -88 -7 0 -5 260
-8 620 -8 607 0 620 1 620 20 0 22 53 22 -625 4z"/>
<path d="M3507 2203 c-29 -29 0 -30 618 -29 344 0 625 3 625 7 0 4 -117 8
-259 8 -143 1 -412 6 -598 11 -413 12 -378 11 -386 3z"/>
<path d="M3420 2161 c0 -6 4 -13 10 -16 6 -3 7 1 4 9 -7 18 -14 21 -14 7z"/>
<path d="M940 2026 c0 -8 12 -27 28 -43 22 -23 43 -82 117 -330 l90 -303 55 0
56 0 58 178 c33 97 66 188 75 202 15 24 14 23 -21 -5 -36 -29 -51 -53 -25 -40
6 4 5 1 -4 -7 -9 -7 -14 -19 -12 -26 3 -8 -1 -10 -14 -5 -16 6 -16 5 -4 -10
12 -15 10 -22 -13 -55 -28 -41 -36 -68 -10 -36 15 19 16 19 9 -1 -4 -11 -10
-28 -12 -37 -3 -10 -9 -16 -13 -13 -4 3 -7 -1 -7 -8 2 -26 -16 -87 -28 -97 -8
-6 -26 -10 -41 -8 -27 3 -31 9 -64 113 -7 22 -15 46 -18 54 -4 10 -1 12 9 6 9
-5 8 -2 -3 11 -15 17 -37 85 -40 122 -1 6 -5 12 -10 12 -5 0 -6 5 -3 10 4 6 2
16 -3 23 -9 11 -25 59 -27 82 -1 6 -7 28 -15 50 -8 22 -15 42 -15 45 -1 3 -5
17 -9 33 -5 17 -4 32 3 40 8 10 7 14 -4 14 -8 0 -12 -4 -9 -8 2 -4 1 -10 -4
-13 -4 -2 -9 4 -9 15 -2 18 4 19 67 17 37 -2 65 -5 61 -8 -11 -7 -10 -111 0
-104 13 8 11 -10 -3 -25 -8 -9 -8 -11 -2 -8 13 8 24 -13 24 -44 0 -13 4 -18
12 -13 6 4 8 3 5 -3 -4 -6 4 -45 18 -88 14 -42 22 -81 19 -87 -4 -7 -2 -8 4
-4 8 5 12 -1 12 -14 0 -23 16 -57 35 -76 9 -9 16 -5 31 19 10 18 20 39 20 47
1 8 6 26 12 40 5 14 9 27 9 30 0 3 10 25 22 49 13 25 17 40 9 35 -10 -6 -11
-5 -1 7 6 8 14 31 18 52 6 29 11 37 23 32 13 -5 12 -2 -2 14 -11 12 -16 29
-13 41 3 11 2 18 -3 15 -4 -2 -10 10 -14 27 -3 17 -13 39 -22 49 -14 16 -10
17 62 17 44 0 72 -3 64 -8 -14 -9 -21 -59 -10 -75 4 -5 11 -23 15 -40 10 -34
10 -35 18 -55 14 -38 31 -96 29 -103 -1 -4 3 -18 10 -30 7 -12 11 -28 10 -34
-2 -7 4 -27 13 -44 9 -17 14 -33 11 -37 -7 -6 33 -36 51 -38 7 -1 11 2 7 7 -3
5 2 9 11 9 9 0 13 5 10 10 -3 6 -3 16 2 23 8 13 10 18 12 43 0 8 5 13 9 10 4
-3 7 8 6 25 -1 16 2 32 7 35 5 3 9 18 9 35 0 16 4 29 10 29 5 0 7 -8 3 -17 -3
-10 -4 -16 -2 -13 31 36 41 53 28 42 -13 -10 -16 -8 -16 18 0 25 3 28 15 17
13 -10 14 -9 5 7 -12 22 -5 59 9 50 6 -4 8 1 4 14 -4 11 -2 23 5 27 8 6 7 10
-2 16 -10 6 -11 9 -1 9 14 0 16 36 2 45 -18 11 0 25 34 25 42 0 47 -6 34 -36
-9 -18 -14 -21 -21 -12 -6 9 -7 4 -4 -14 2 -16 0 -28 -4 -28 -5 0 -5 -7 -2
-17 5 -12 3 -14 -7 -8 -10 6 -12 4 -7 -8 3 -9 2 -19 -2 -21 -7 -5 -13 -24 -25
-76 -7 -31 -41 -118 -45 -115 -3 1 -6 -10 -7 -25 -1 -15 -5 -36 -9 -46 -10
-24 -12 -30 -14 -50 0 -9 -6 -12 -13 -8 -6 4 -8 3 -4 -4 6 -10 -15 -86 -36
-129 -12 -24 -35 -33 -62 -23 -20 7 -61 114 -50 131 3 5 0 9 -6 9 -7 0 -10 6
-7 14 3 8 2 16 -3 18 -5 2 -12 19 -14 38 -8 56 -43 138 -51 118 -6 -14 21
-118 79 -308 l13 -45 58 0 57 0 98 285 c112 330 116 339 147 346 14 4 23 14
23 25 0 17 -9 19 -110 19 -103 0 -110 -1 -110 -20 0 -11 6 -20 13 -20 6 0 20
-6 29 -13 15 -12 12 -27 -41 -193 -32 -98 -62 -194 -67 -213 -8 -30 -14 -16
-71 180 -63 220 -65 239 -22 239 12 0 19 7 19 20 0 19 -7 20 -129 20 -129 0
-156 -7 -126 -32 44 -36 52 -48 64 -99 13 -55 13 -56 -37 -210 -28 -84 -53
-147 -55 -139 -3 8 -30 105 -61 215 -53 186 -56 201 -39 212 9 7 23 13 30 13
7 0 13 9 13 20 0 19 -7 20 -130 20 -106 0 -130 -3 -130 -14z"/>
<path d="M4709 2027 c-96 -27 -150 -92 -151 -180 -1 -99 47 -151 189 -206 108
-42 140 -63 148 -99 16 -74 -41 -117 -141 -109 -77 6 -117 29 -146 84 -14 25
-30 43 -40 43 -16 0 -17 -8 -12 -77 4 -43 9 -81 13 -85 12 -12 104 -38 169
-48 112 -16 216 18 268 86 33 42 45 134 24 184 -21 51 -81 95 -183 135 -121
47 -147 66 -147 110 0 51 27 77 88 83 29 2 72 -1 95 -8 37 -10 47 -19 65 -56
15 -30 28 -44 42 -44 18 0 20 6 20 80 l0 79 -52 16 c-72 22 -192 28 -249 12z
m27 -62 c-3 -9 -10 -14 -16 -10 -19 12 -49 -56 -46 -104 2 -25 -1 -55 -6 -66
-8 -19 -8 -19 5 -2 12 14 16 15 26 4 6 -8 7 -18 3 -22 -4 -5 -1 -5 6 0 10 5
11 10 3 18 -6 6 -11 15 -11 20 0 5 9 -2 21 -17 11 -14 27 -26 35 -26 8 0 23
-9 34 -20 11 -11 20 -16 20 -10 0 5 16 1 36 -11 20 -11 39 -18 42 -14 3 3 -1
5 -8 5 -7 0 -11 2 -8 5 5 5 32 -10 100 -57 16 -11 16 -13 1 -30 -15 -17 -14
-22 5 -15 4 1 6 5 4 10 -1 4 2 7 6 7 5 0 14 -18 21 -41 10 -32 10 -44 0 -56
-14 -17 -20 -55 -7 -47 4 3 5 -2 2 -10 -3 -9 -11 -13 -17 -9 -6 4 -8 0 -4 -11
4 -10 3 -15 -3 -11 -6 3 -10 -1 -10 -9 0 -9 -7 -16 -15 -16 -8 0 -15 -4 -15
-9 0 -10 -28 -21 -65 -28 -80 -14 -241 -1 -229 19 3 5 0 9 -7 7 -8 -1 -23 -1
-34 0 -17 1 -18 3 -5 11 12 8 12 10 1 10 -11 0 -11 3 -1 15 11 13 10 14 -1 10
-10 -4 -15 1 -15 14 0 19 2 19 18 4 10 -8 15 -19 13 -24 -3 -4 -1 -10 5 -14 5
-3 10 0 10 7 0 7 7 2 16 -10 8 -12 21 -22 27 -22 7 0 6 4 -3 10 -21 14 -3 12
23 -2 28 -15 169 -19 160 -5 -4 6 2 8 15 5 12 -4 25 -2 28 3 3 5 2 9 -3 8 -22
-4 -25 2 -7 15 14 11 22 12 33 3 12 -10 12 -9 3 10 -15 27 -15 36 -2 28 6 -3
7 1 4 9 -3 9 -2 16 4 16 6 0 13 -6 15 -12 4 -9 6 -10 6 -1 1 6 -6 19 -15 27
-8 9 -13 20 -10 25 3 5 -1 11 -9 15 -8 3 -15 12 -15 21 0 8 -4 15 -8 15 -15 0
-57 42 -54 53 2 6 -4 4 -13 -3 -13 -11 -18 -11 -28 0 -10 10 -9 11 2 5 9 -5
12 -4 7 3 -4 6 -13 9 -21 5 -9 -3 -32 3 -53 13 -20 9 -42 17 -49 17 -7 0 -10
4 -7 8 2 4 -6 9 -18 11 -45 6 -102 142 -69 163 6 3 8 12 5 20 -7 16 37 64 86
94 30 18 37 19 49 7 7 -8 11 -22 7 -31z m154 33 c0 -5 4 -7 9 -3 5 3 13 0 16
-6 4 -6 18 -8 31 -5 28 7 37 -7 32 -51 l-3 -28 -28 28 c-15 15 -32 27 -38 27
-6 0 -8 3 -6 8 3 4 -30 7 -73 7 -63 0 -76 2 -68 13 8 9 7 11 -6 6 -9 -3 -16
-1 -16 5 0 6 28 10 75 9 41 -1 75 -5 75 -10z"/>
<path d="M4626 1918 c3 -5 10 -6 15 -3 13 9 11 12 -6 12 -8 0 -12 -4 -9 -9z"/>
<path d="M4620 1745 c0 -2 6 -8 13 -14 10 -8 14 -7 14 2 0 8 -6 14 -14 14 -7
0 -13 -1 -13 -2z"/>
<path d="M4915 1589 c-4 -6 -5 -12 -2 -15 2 -3 7 2 10 11 7 17 1 20 -8 4z"/>
<path d="M4964 1512 c4 -7 2 -19 -4 -27 -7 -9 -8 -15 -2 -15 16 0 24 32 11 44
-9 8 -10 8 -5 -2z"/>
<path d="M4915 1419 c-4 -6 -5 -12 -2 -15 2 -3 7 2 10 11 7 17 1 20 -8 4z"/>
<path d="M3070 1957 c-109 -25 -195 -97 -220 -185 -30 -111 2 -246 73 -307 85
-73 242 -94 368 -50 43 15 47 20 52 53 2 20 3 39 1 41 -2 2 -26 -6 -54 -18
-110 -47 -194 -38 -254 29 -96 106 -65 311 54 360 18 7 55 11 91 8 54 -4 66
-9 89 -35 15 -17 29 -36 31 -42 6 -18 37 -2 34 17 -2 9 -4 38 -4 64 l-1 46
-47 10 c-87 19 -157 21 -213 9z m182 -35 c6 -6 16 -8 23 -5 13 4 41 -34 32
-43 -8 -8 -37 8 -31 17 3 5 -2 6 -10 3 -9 -3 -16 -1 -16 6 0 6 -4 9 -9 5 -5
-3 -12 -1 -15 4 -8 12 -136 12 -136 -1 0 -6 -7 -8 -15 -4 -8 3 -19 -2 -24 -12
-6 -9 -11 -13 -11 -9 0 12 -35 -25 -35 -37 0 -6 -7 -10 -16 -8 -9 1 -16 -4
-16 -13 0 -8 5 -11 10 -8 12 7 1 -14 -19 -37 -8 -10 -12 -40 -10 -90 4 -83 6
-94 26 -130 13 -24 12 -24 -6 -10 -12 9 -15 9 -7 1 6 -7 9 -21 6 -30 -4 -14
-3 -14 6 -1 8 12 14 11 35 -9 14 -13 23 -28 20 -32 -3 -5 1 -9 8 -9 8 0 19 -5
26 -12 6 -6 20 -14 29 -16 32 -8 143 -10 143 -2 0 4 10 10 23 13 12 2 29 7 37
9 8 3 12 3 7 1 -4 -3 -4 -10 0 -16 3 -7 3 -9 -2 -5 -4 4 -23 1 -42 -7 -37 -16
-89 -19 -175 -12 -66 6 -87 15 -67 29 10 7 8 8 -7 3 -12 -3 -34 1 -50 10 -16
8 -24 15 -19 15 6 1 -1 7 -14 14 -40 22 -78 150 -56 186 6 9 4 11 -5 5 -10 -6
-12 -4 -7 9 4 10 7 30 7 45 0 16 11 44 24 64 13 19 21 39 18 43 -4 4 -1 4 6 0
7 -4 12 -2 12 5 0 9 3 9 14 0 11 -9 16 -9 22 0 4 8 3 9 -4 5 -7 -4 -12 -2 -12
3 0 6 5 11 11 11 5 0 7 5 3 12 -4 6 -3 8 4 4 6 -3 13 -2 17 3 10 18 66 40 82
34 10 -4 14 -2 10 4 -9 14 161 9 175 -5z"/>
<path d="M3040 1910 c-9 -6 -10 -10 -3 -10 6 0 15 5 18 10 8 12 4 12 -15 0z"/>
<path d="M2994 1878 l-19 -23 23 19 c12 11 22 21 22 23 0 8 -8 2 -26 -19z"/>
<path d="M2990 1501 c0 -5 7 -12 16 -15 14 -5 15 -4 4 9 -14 17 -20 19 -20 6z"/>
<path d="M3050 1451 c0 -6 4 -13 10 -16 6 -3 7 1 4 9 -7 18 -14 21 -14 7z"/>
<path d="M1910 1712 c-91 -215 -109 -249 -137 -267 -58 -36 -43 -45 72 -45 87
0 105 3 105 15 0 8 -4 15 -8 15 -5 0 -16 6 -27 13 -18 14 -18 15 0 65 l19 52
106 0 105 0 18 -49 c22 -63 22 -68 -8 -75 -14 -4 -25 -13 -25 -21 0 -13 22
-15 130 -15 101 0 130 3 130 13 0 7 -15 20 -32 28 -30 13 -40 32 -138 266
l-105 253 -50 0 -50 -1 -105 -247z m194 190 c7 -12 15 -20 18 -16 4 3 6 -2 6
-12 -1 -11 13 -49 30 -87 18 -37 32 -73 32 -80 0 -7 7 -22 15 -33 8 -12 12
-24 10 -26 -3 -3 8 -30 25 -61 31 -59 36 -72 22 -63 -4 2 -8 -5 -9 -17 0 -12
1 -16 4 -9 3 6 9 12 15 12 6 0 8 -7 4 -15 -3 -8 -1 -15 4 -15 6 0 10 -7 10
-16 0 -8 4 -13 8 -10 5 3 9 0 9 -7 0 -7 -16 -13 -39 -13 -21 -1 -36 1 -34 5 3
4 0 13 -5 21 -8 12 -9 11 -7 -4 2 -10 -3 -21 -10 -23 -8 -3 -10 1 -6 12 4 10
1 21 -7 26 -8 5 -9 9 -3 9 6 0 -4 30 -22 68 -18 37 -34 70 -34 75 0 15 19 6
23 -10 4 -16 5 -16 6 0 1 11 -7 21 -19 24 -16 4 -18 8 -9 19 9 12 9 13 -3 9
-8 -3 -15 0 -15 7 0 7 -12 44 -27 81 -15 37 -24 73 -20 80 5 8 2 7 -9 -2 -11
-9 -17 -10 -17 -2 0 6 -5 11 -11 11 -5 0 -7 -4 -4 -10 3 -5 2 -10 -4 -10 -5 0
-11 3 -14 8 -2 4 -2 2 -1 -5 4 -17 -17 -28 -26 -14 -4 7 5 36 18 65 23 47 29
53 55 52 19 -1 33 -9 41 -24z m16 -279 c0 -2 -36 -3 -80 -3 -77 0 -90 5 -72
26 8 8 38 77 63 141 10 27 12 25 50 -67 21 -52 39 -96 39 -97z m-116 156 c-3
-5 -10 -7 -15 -3 -5 3 -9 2 -8 -3 5 -21 -15 -84 -30 -93 -9 -5 -12 -10 -8 -10
4 0 3 -8 -2 -18 -6 -12 -4 -23 9 -39 10 -12 20 -20 24 -18 3 3 3 2 0 -2 -6 -8
-10 -9 -39 -12 -15 -1 -51 -59 -47 -74 1 -5 -3 -5 -9 -1 -8 4 -9 0 -4 -16 5
-15 4 -20 -4 -16 -8 5 -8 0 -2 -16 8 -21 6 -23 -19 -23 -29 -1 -35 19 -11 34
7 5 12 10 10 12 -5 9 13 49 22 49 6 0 7 9 4 21 -5 16 -4 19 5 14 9 -5 11 -4 6
4 -7 10 16 43 29 41 17 -4 27 7 11 13 -12 5 -15 3 -10 -6 5 -9 4 -9 -5 -1 -10
9 -10 17 3 36 9 14 13 28 9 33 -5 4 -3 6 2 2 6 -3 15 6 22 19 6 14 7 24 1 24
-5 0 -6 5 -3 10 4 6 11 7 17 4 7 -4 8 -2 4 4 -10 17 12 52 29 46 8 -4 12 -10
9 -15z m146 -204 c0 -5 -5 -3 -10 5 -5 8 -10 11 -10 7 0 -5 -5 -5 -11 -1 -8 4
-7 9 2 15 13 8 29 -6 29 -26z"/>
<path d="M2186 1613 c-6 -14 -5 -15 5 -6 7 7 10 15 7 18 -3 3 -9 -2 -12 -12z"/>
<path d="M2300 1898 c0 -31 -3 -63 -6 -72 -12 -32 31 -16 46 17 15 31 17 32
85 35 l70 3 -1 -213 -1 -213 -27 -15 c-54 -31 -33 -40 99 -40 101 0 125 3 125
14 0 8 -13 19 -30 24 l-29 11 -3 215 -3 216 66 0 c65 0 66 0 85 -35 30 -57 44
-45 44 38 l0 72 -260 0 -260 0 0 -57z m63 25 c8 -7 -21 -43 -34 -43 -4 0 -7 9
-6 19 0 11 5 17 9 15 4 -3 8 0 8 5 0 12 13 14 23 4z m226 -5 c11 -10 14 -10
18 0 3 6 17 12 31 11 25 -1 24 -2 -12 -19 -24 -11 -33 -20 -25 -23 10 -4 10
-6 -2 -6 -9 -1 -19 -11 -22 -23 -6 -23 -6 -23 9 -3 14 18 15 -1 12 -192 -2
-116 0 -211 3 -210 4 1 9 -2 10 -8 6 -15 -88 -17 -94 -1 -7 16 9 43 20 33 4
-5 1 -12 -7 -17 -11 -7 -10 -9 7 -7 16 1 19 5 14 17 -5 8 -7 21 -5 28 1 7 0 8
-3 2 -16 -34 -22 9 -22 158 1 187 3 206 27 197 9 -3 13 -3 9 1 -4 4 -1 14 6
22 9 12 6 12 -14 -2 -24 -15 -27 -15 -33 -1 -4 11 -2 14 6 9 6 -4 8 -3 4 4 -3
6 -31 16 -61 23 -43 10 -57 9 -70 -1 -12 -10 -15 -10 -15 4 0 14 14 16 98 16
65 0 103 -4 111 -12z m207 -10 c4 -28 -13 -30 -37 -6 -12 13 -18 17 -14 9 6
-10 4 -12 -6 -5 -8 4 -27 8 -44 7 l-30 -2 30 9 c49 13 98 8 101 -12z"/>
<path d="M2339 1903 c-13 -16 -12 -17 4 -4 9 7 17 15 17 17 0 8 -8 3 -21 -13z"/>
<path d="M2576 1483 c-6 -14 -5 -15 5 -6 7 7 10 15 7 18 -3 3 -9 -2 -12 -12z"/>
<path d="M3380 1938 c0 -11 8 -18 18 -18 39 0 42 -16 42 -242 l0 -219 -30 -17
c-58 -33 -39 -42 90 -42 94 0 120 3 120 13 0 8 -11 19 -25 25 -24 11 -25 15
-25 107 0 52 0 98 0 101 0 3 54 6 120 7 l120 2 0 -103 0 -104 -30 -11 c-16 -6
-30 -17 -30 -24 0 -10 30 -13 125 -13 95 0 125 3 125 13 0 7 -13 18 -30 24
l-30 11 0 224 c0 232 3 248 42 248 10 0 18 7 18 18 0 15 -13 17 -125 17 -112
0 -125 -2 -125 -17 0 -11 8 -18 18 -18 34 0 42 -21 42 -112 l0 -88 -122 0
-123 0 3 95 c3 91 4 95 28 101 13 3 24 14 24 23 0 14 -15 16 -120 16 -108 0
-120 -2 -120 -17z m159 -22 c6 -4 8 -12 4 -18 -3 -7 -6 -45 -5 -86 2 -51 -1
-71 -9 -67 -6 4 -5 -1 2 -13 12 -19 60 -37 119 -45 15 -2 6 -5 -22 -8 -25 -2
-44 -1 -41 4 9 15 -7 6 -31 -18 -14 -14 -23 -25 -20 -25 2 0 0 -10 -7 -21 -6
-12 -7 -19 -1 -15 6 4 11 -15 14 -48 1 -30 0 -52 -4 -49 -5 2 -8 1 -9 -4 0 -4
-2 -19 -3 -31 -2 -16 4 -27 18 -32 15 -6 5 -9 -38 -9 -47 -1 -57 2 -52 14 7
20 9 446 2 465 -5 12 2 15 33 14 21 -1 44 -4 50 -8z m391 6 c0 -4 -5 -13 -10
-18 -13 -13 -15 -427 -1 -452 9 -16 5 -19 -35 -21 -30 -1 -44 2 -45 11 0 7 -3
58 -5 113 -6 123 -6 125 -14 120 -4 -2 -16 3 -26 11 -13 11 -14 14 -4 12 34
-10 47 25 47 120 0 51 -5 92 -9 92 -5 0 -6 5 -3 10 7 12 105 14 105 2z m-177
-239 c-13 -2 -35 -2 -50 0 -16 2 -5 4 22 4 28 0 40 -2 28 -4z"/>
<path d="M4034 1951 c-10 -10 -2 -21 24 -33 l27 -13 3 -228 2 -229 -30 -11
c-16 -6 -30 -17 -30 -24 0 -10 49 -13 224 -13 124 0 227 3 229 8 3 4 8 37 12
75 8 80 -5 88 -47 27 l-28 -40 -100 0 -100 0 0 90 0 90 69 0 c62 0 72 -3 89
-25 34 -43 42 -32 42 60 0 64 -3 85 -13 85 -8 0 -19 -11 -25 -25 -6 -14 -20
-25 -29 -25 -10 -1 -44 -2 -75 -3 l-58 -2 0 82 0 83 98 0 98 0 17 -35 c11 -24
21 -33 32 -29 11 5 15 22 15 73 l0 66 -221 0 c-121 0 -222 -2 -225 -4z m412
-34 c11 -11 -7 -28 -19 -19 -7 5 -52 10 -102 11 -120 3 -127 -3 -129 -100 -1
-41 -5 -80 -10 -87 -4 -7 -5 -16 -2 -19 3 -4 6 -1 6 5 0 9 5 9 20 0 11 -7 20
-16 20 -21 0 -4 -4 -5 -10 -2 -6 3 -7 -1 -4 -9 3 -9 0 -18 -8 -21 -10 -4 -13
-22 -10 -75 3 -43 0 -76 -7 -84 -9 -10 -8 -15 5 -20 9 -4 14 -12 10 -22 -3 -8
-2 -13 2 -10 4 2 14 1 21 -3 6 -4 -16 -7 -51 -7 -53 1 -63 4 -66 20 -3 11 0
16 7 12 7 -4 9 -1 5 8 -9 24 -10 405 -1 399 5 -3 4 4 -2 16 -22 40 -7 43 160
38 88 -2 162 -7 165 -10z m-50 -234 c-3 -21 -15 -27 -22 -10 -3 9 -13 14 -22
10 -12 -3 -13 -2 -5 4 18 13 51 11 49 -4z m65 -222 c-7 -5 -11 -12 -9 -17 1
-5 -19 -10 -47 -12 -33 -2 -45 1 -36 7 8 5 19 7 25 5 6 -2 25 4 41 15 17 10
32 16 35 14 2 -2 -1 -8 -9 -12z m-163 -28 c-10 -2 -26 -2 -35 0 -10 3 -2 5 17
5 19 0 27 -2 18 -5z"/>
<path d="M4175 1750 c-3 -5 -1 -10 4 -10 6 0 11 5 11 10 0 6 -2 10 -4 10 -3 0
-8 -4 -11 -10z"/>
<path d="M4177 1531 c-4 -17 -3 -21 5 -13 5 5 8 16 6 23 -3 8 -7 3 -11 -10z"/>
<path d="M4144 1500 c0 -13 4 -16 10 -10 7 7 7 13 0 20 -6 6 -10 3 -10 -10z"/>
<path d="M1082 1820 c0 -14 2 -19 5 -12 2 6 2 18 0 25 -3 6 -5 1 -5 -13z"/>
<path d="M5010 1736 c0 -2 8 -10 18 -17 15 -13 16 -12 3 4 -13 16 -21 21 -21
13z"/>
<path d="M1161 1524 c0 -11 3 -14 6 -6 3 7 2 16 -1 19 -3 4 -6 -2 -5 -13z"/>
<path d="M2979 1267 c-11 -28 -22 -42 -35 -43 -74 -3 -72 -2 -36 -25 35 -23
37 -28 23 -77 -11 -37 -8 -39 26 -12 32 25 44 25 77 -1 32 -26 40 -21 26 15
-15 40 -13 49 21 72 l30 21 -32 7 c-17 3 -35 4 -39 1 -4 -3 -16 15 -27 40
l-19 44 -15 -42z m51 -92 c-5 -13 -6 -26 -2 -30 17 -18 -45 10 -65 29 -23 22
-31 42 -12 31 6 -4 17 3 26 15 l15 21 23 -21 c19 -18 22 -27 15 -45z"/>
<path d="M2987 1217 c-3 -8 1 -14 8 -14 7 0 11 6 8 14 -3 7 -6 13 -8 13 -2 0
-5 -6 -8 -13z"/>
<path d="M2585 1270 c-321 -11 -660 -39 -953 -80 -61 -8 -68 -7 -179 36 -64
25 -120 43 -125 42 -5 -2 37 -23 92 -48 56 -24 104 -48 107 -54 3 -5 1 -6 -5
-3 -9 6 -312 -40 -321 -49 -11 -10 9 -11 54 -3 28 5 110 16 183 25 l132 15 83
-30 c293 -107 663 -183 1062 -217 124 -11 455 -8 610 5 327 28 708 107 998
208 l99 34 141 -16 c78 -9 162 -21 186 -26 24 -5 46 -8 48 -5 7 7 -57 22 -205
47 l-133 23 63 29 c35 16 85 37 112 47 26 10 44 20 40 22 -5 3 -63 -16 -129
-43 -78 -30 -131 -46 -150 -43 -16 2 -82 10 -145 18 -270 36 -645 63 -941 69
-121 2 -135 0 -132 -14 4 -13 24 -18 96 -23 154 -11 227 -15 357 -21 145 -7
464 -31 595 -45 50 -6 105 -8 124 -6 18 3 30 2 27 -1 -4 -4 -14 -8 -24 -9 -9
-2 -63 -16 -119 -33 -544 -160 -1238 -209 -1843 -131 -220 28 -486 83 -659
135 -46 13 -88 22 -94 18 -6 -4 -7 -1 -2 7 6 10 4 12 -11 6 -10 -4 -15 -4 -12
0 4 3 38 8 75 10 37 1 142 10 233 18 91 8 262 20 380 26 431 21 530 33 530 62
0 5 -6 7 -12 6 -7 -1 -112 -5 -233 -8z m875 -320 c0 -5 -8 -10 -17 -10 -15 0
-16 2 -3 10 19 12 20 12 20 0z m-823 -16 c-3 -3 -12 -4 -19 -1 -8 3 -5 6 6 6
11 1 17 -2 13 -5z m88 -4 c3 -6 -1 -7 -9 -4 -18 7 -21 14 -7 14 6 0 13 -4 16
-10z m565 0 c10 -6 2 -7 -25 -3 -49 7 -58 13 -19 13 16 0 36 -5 44 -10z m-523
-6 c-3 -3 -12 -4 -19 -1 -8 3 -5 6 6 6 11 1 17 -2 13 -5z m188 1 c-23 -8 -83
-10 -79 -3 3 4 24 8 47 7 23 0 38 -2 32 -4z m164 1 c-10 -9 -109 -14 -109 -6
0 6 26 10 57 10 31 0 54 -2 52 -4z"/>
<path d="M2291 1148 c-90 -4 -169 -9 -175 -12 -6 -2 93 -5 219 -5 151 -1 261
-6 320 -16 105 -17 169 -19 160 -5 -3 6 -37 10 -76 10 -39 0 -69 4 -69 10 0 6
28 10 64 10 36 0 68 5 71 10 7 12 -246 11 -514 -2z"/>
<path d="M3180 1152 c0 -8 22 -12 63 -13 46 -1 56 -3 37 -9 -14 -4 -42 -8 -63
-9 -21 -1 -36 -5 -33 -9 3 -5 51 -2 108 5 57 7 222 13 368 14 340 2 257 15
-167 25 -235 5 -313 4 -313 -4z"/>
</g>
</svg>
